<svg width="20" height="20" viewBox="0 0 20 20" fill="none" xmlns="http://www.w3.org/2000/svg">
<path d="M19.2975 10.5978C19.6707 11.271 19.9007 12.0075 19.9743 12.7652C20.0478 13.5229 19.9634 14.2869 19.726 15.0136C19.4886 15.7403 19.1028 16.4155 18.5906 17.0004C18.0784 17.5854 17.4498 18.0687 16.7409 18.4228L14.783 19.4029L14.3016 19.6434C13.8593 19.8646 13.3694 19.9862 12.8697 19.9989C12.3701 20.0116 11.8741 19.915 11.4199 19.7167L3.77365 16.6132L4.49367 14.5838L9.04101 15.4184L6.68604 11.167L2.89473 4.32309L4.74167 3.39996L8.53302 10.2459L9.4453 9.79005L7.77392 6.7707L9.61985 5.84809L11.2912 8.86744L12.2035 8.41157L10.9129 6.08122L12.7599 5.15809L14.0505 7.48844L14.9633 7.02861L14.0775 5.42487L15.924 4.50426L16.8097 6.10796L19.2969 10.5993L19.2975 10.5978ZM1.63757 5.2467C1.25388 4.88187 0.992566 4.41723 0.886603 3.91142C0.78064 3.40562 0.83478 2.88133 1.04219 2.40474C1.2496 1.92814 1.60098 1.5206 2.05197 1.23357C2.50297 0.946529 3.03337 0.79286 3.57622 0.791957C4.01612 0.792425 4.44949 0.893133 4.83995 1.08563C5.23042 1.27812 5.56658 1.55679 5.82024 1.89824C6.0739 2.23969 6.23764 2.63396 6.29774 3.04797C6.35783 3.46198 6.31252 3.88364 6.1656 4.27757L6.65016 5.1477C6.97428 4.63148 7.14874 4.04293 7.1558 3.44189C7.16286 2.84085 7.00227 2.24874 6.69035 1.72579C6.37843 1.20283 5.92632 0.767662 5.37997 0.464536C4.83362 0.161409 4.21252 0.00113214 3.57983 0C2.6527 0.000123858 1.76176 0.341923 1.09451 0.953469C0.427266 1.56501 0.0357399 2.39862 0.00232799 3.27886C-0.0310839 4.15909 0.296224 5.01732 0.915372 5.67294C1.53452 6.32856 2.39723 6.73043 3.32195 6.794L2.83478 5.91392C2.38189 5.79315 1.96951 5.56332 1.63757 5.2467Z" fill="#384AAD"/>
</svg>
