<svg width="40" height="40" viewBox="0 0 40 40" fill="none" xmlns="http://www.w3.org/2000/svg">
<rect width="40" height="40" fill="#7E7156"/>
<g id="Frame 311">
<g id="Frame 298">
<rect x="-33" y="-177" width="425" height="456" rx="10" fill="#F6F6F6"/>
<g id="Group 285">
<g id="Frame 302">
<g id="Frame 300">
<g id="Group 283">
<circle id="Ellipse 85" cx="20" cy="20" r="19.5" fill="#D7DBEF" stroke="#384AAD"/>
<path id="Vector" d="M25.6122 14.5H11.8595V13H25.6122V14.5ZM24.7526 19C23.1109 19 21.6325 19.57 20.5495 20.5H20.4549V20.5825C19.3891 21.5275 18.7359 22.8175 18.7359 24.25C18.7359 24.505 18.7617 24.7525 18.8046 25H11.8595V20.5H11V19L11.8595 15.25H25.6122L26.4717 19V19.225C25.9302 19.0825 25.3543 19 24.7526 19ZM18.7359 20.5H13.5786V23.5H18.7359V20.5ZM24.7183 19L24.2025 16.75H13.2692L12.7535 19H24.7183ZM28.8784 25.3C28.9644 25.3 28.9644 25.375 28.8784 25.45L28.0189 26.725C27.9329 26.8 27.847 26.8 27.761 26.8L26.7296 26.5C26.4717 26.65 26.2998 26.725 26.042 26.875L25.8701 27.85C25.8701 27.925 25.7841 28 25.6981 28H23.9791C23.8931 28 23.8072 27.925 23.7212 27.85L23.5493 26.875C23.2914 26.8 23.0336 26.65 22.8617 26.5L21.8302 26.875C21.7443 26.875 21.6583 26.875 21.5723 26.8L20.7128 25.525C20.6269 25.45 20.7128 25.375 20.7988 25.3L21.7443 24.7V23.95L20.7988 23.35C20.7128 23.275 20.7128 23.2 20.7128 23.125L21.5723 21.85C21.6583 21.775 21.7443 21.775 21.8302 21.775L22.8617 22.15C23.1195 22 23.2914 21.925 23.5493 21.775L23.7212 20.8C23.7212 20.725 23.8072 20.65 23.9791 20.65H25.6981C25.7841 20.65 25.8701 20.725 25.8701 20.8L26.042 21.775C26.2998 21.85 26.5577 22 26.8155 22.15L27.847 21.775C27.9329 21.775 28.1049 21.775 28.1049 21.85L28.9644 23.125C29.0504 23.2 28.9644 23.275 28.8784 23.35L27.9329 23.95V24.7L28.8784 25.3ZM26.042 24.25C26.042 23.65 25.4403 23.125 24.7526 23.125C24.065 23.125 23.4633 23.65 23.4633 24.25C23.4633 24.85 24.065 25.375 24.7526 25.375C25.4403 25.375 26.042 24.85 26.042 24.25Z" fill="#384AAD"/>
</g>
</g>
</g>
</g>
</g>
</g>
</svg>
