<svg width="20" height="20" viewBox="0 0 20 20" fill="none" xmlns="http://www.w3.org/2000/svg">
<path d="M10 2.39207L9.38315 1.7131C8.3314 0.600086 6.93331 -0.0101975 5.48588 0.0118957C4.03846 0.033989 2.65576 0.686718 1.63153 1.83142C0.607289 2.97612 0.0222246 4.52259 0.000620211 6.14231C-0.0209842 7.76202 0.522574 9.32735 1.51582 10.5058L10 20L18.4842 10.4944C19.4774 9.31603 20.021 7.75071 19.9994 6.13099C19.9778 4.51128 19.3927 2.96481 18.3685 1.8201C17.3442 0.675402 15.9615 0.0226728 14.5141 0.000579594C13.0667 -0.0215137 11.6686 0.58877 10.6168 1.70178L10 2.39207Z" fill="#C62828"/>
</svg>
