<svg width="20" height="19" viewBox="0 0 20 19" fill="none" xmlns="http://www.w3.org/2000/svg">
<g id="Group 3">
<path id="Vector" d="M9.79141 12.35C11.3654 12.35 12.6414 11.074 12.6414 9.50002C12.6414 7.92601 11.3654 6.65002 9.79141 6.65002C8.21739 6.65002 6.94141 7.92601 6.94141 9.50002C6.94141 11.074 8.21739 12.35 9.79141 12.35Z" fill="#1B1B1B"/>
<path id="Vector_2" d="M11.6428 2.13682C11.1328 2.00778 10.7391 1.5713 10.7391 1.04517V0.95C10.7391 0.42533 10.3137 0 9.78906 0C9.26439 0 8.83906 0.42533 8.83906 0.95V1.04517C8.83906 1.5713 8.44536 2.00778 7.9353 2.13682C6.61112 2.47181 5.39557 3.15886 4.42175 4.13269C3.44792 5.10651 2.76087 6.32205 2.42588 7.64624C2.29684 8.1563 1.86036 8.55 1.33423 8.55H1.23906C0.714392 8.55 0.289062 8.97533 0.289062 9.5C0.289062 10.0247 0.714392 10.45 1.23906 10.45H1.33418C1.86032 10.45 2.29681 10.8437 2.42581 11.3538C2.76071 12.6781 3.44773 13.8936 4.42157 14.8675C5.39541 15.8413 6.61101 16.5284 7.93524 16.8633C8.44532 16.9923 8.83906 17.4287 8.83906 17.9549V18.05C8.83906 18.5747 9.26439 19 9.78906 19C10.3137 19 10.7391 18.5747 10.7391 18.05V17.9549C10.7391 17.4287 11.1328 16.9923 11.6429 16.8633C12.9671 16.5284 14.1827 15.8413 15.1566 14.8675C16.1304 13.8936 16.8174 12.6781 17.1523 11.3538C17.2813 10.8437 17.7178 10.45 18.2439 10.45H18.3391C18.8637 10.45 19.2891 10.0247 19.2891 9.5C19.2891 8.97533 18.8637 8.55 18.3391 8.55H18.2439C17.7178 8.55 17.2813 8.1563 17.1522 7.64624C16.8173 6.32205 16.1302 5.10651 15.1564 4.13269C14.1826 3.15886 12.967 2.47181 11.6428 2.13682ZM9.78906 15.2C6.64551 15.2 4.08906 12.6435 4.08906 9.5C4.08906 6.35645 6.64551 3.8 9.78906 3.8C12.9326 3.8 15.4891 6.35645 15.4891 9.5C15.4891 12.6435 12.9326 15.2 9.78906 15.2Z" fill="#1B1B1B"/>
</g>
</svg>
