<svg width="129" height="36" viewBox="0 0 129 36" fill="none" xmlns="http://www.w3.org/2000/svg">
<path d="M0.664062 13.4689C0.664062 6.23305 6.52988 0.367226 13.7657 0.367226H22.5002C29.736 0.367226 35.6019 6.23304 35.6019 13.4689V30.9378C35.6019 33.3497 33.6466 35.305 31.2346 35.305H13.7657C6.52989 35.305 0.664062 29.4392 0.664062 22.2034V13.4689Z" fill="#384AAD"/>
<path d="M26.9695 12.3326L26.9801 12.3229L23.6027 9.22765C23.4533 9.09231 23.2517 9.01641 23.0416 9.01641C22.8315 9.01641 22.6299 9.09231 22.4805 9.22765C22.1735 9.50903 22.1735 9.97478 22.4805 10.2562L24.1533 11.7892C23.0416 12.1774 22.2899 13.2156 22.4805 14.4188C22.6499 15.4861 23.6451 16.3497 24.8097 16.4661C25.3073 16.5146 25.7414 16.437 26.1543 16.272V23.2679C26.1543 23.8016 25.6778 24.2382 25.0955 24.2382C24.5132 24.2382 24.0368 23.8016 24.0368 23.2679V18.9016C24.0368 17.8342 23.084 16.961 21.9194 16.961H20.8606V10.1688C20.8606 9.10151 19.9078 8.22823 18.7432 8.22823H12.3909C11.2263 8.22823 10.2734 9.10151 10.2734 10.1688V24.7234C10.2734 25.257 10.7499 25.6937 11.3322 25.6937H19.8019C20.3842 25.6937 20.8606 25.257 20.8606 24.7234V18.4164H22.4487V23.1321C22.4487 24.4032 23.4439 25.5578 24.8203 25.684C25.1894 25.7194 25.5625 25.6832 25.9153 25.5778C26.2682 25.4725 26.593 25.3003 26.8685 25.0725C27.1441 24.8446 27.3643 24.5662 27.5148 24.2554C27.6653 23.9445 27.7429 23.608 27.7423 23.2679V14.05C27.7423 13.3805 27.4459 12.7692 26.9695 12.3326ZM18.7432 15.0204H12.3909V11.1391C12.3909 10.6055 12.8673 10.1688 13.4496 10.1688H17.6845C18.2668 10.1688 18.7432 10.6055 18.7432 11.1391V15.0204ZM25.0955 15.0204C24.5132 15.0204 24.0368 14.5837 24.0368 14.05C24.0368 13.5164 24.5132 13.0797 25.0955 13.0797C25.6778 13.0797 26.1543 13.5164 26.1543 14.05C26.1543 14.5837 25.6778 15.0204 25.0955 15.0204Z" fill="white"/>
<path d="M48.5088 11.7178C48.5088 11.3678 48.5251 11.026 48.5576 10.6924C48.5902 10.3587 48.6675 10.0617 48.7896 9.80127C48.9198 9.53271 49.1069 9.31706 49.3511 9.1543C49.5952 8.99154 49.9329 8.91016 50.3643 8.91016C50.8281 8.91016 51.1903 8.99154 51.4507 9.1543C51.7111 9.31706 51.9023 9.53271 52.0244 9.80127C52.1465 10.0617 52.2197 10.3587 52.2441 10.6924C52.2767 11.026 52.293 11.3678 52.293 11.7178V22.4111H54.6855C55.0192 22.4111 55.3488 22.4274 55.6743 22.46C55.9998 22.4925 56.2887 22.5698 56.541 22.6919C56.8014 22.814 57.009 22.993 57.1636 23.229C57.3182 23.465 57.3955 23.7865 57.3955 24.1934C57.3955 24.6084 57.3182 24.938 57.1636 25.1821C57.009 25.4181 56.8014 25.5972 56.541 25.7192C56.2887 25.8413 55.9998 25.9186 55.6743 25.9512C55.3488 25.9837 55.0192 26 54.6855 26H51.2188C50.7874 26 50.4049 25.9837 50.0713 25.9512C49.7376 25.9186 49.4528 25.8413 49.2168 25.7192C48.9889 25.5972 48.814 25.4181 48.6919 25.1821C48.5698 24.938 48.5088 24.6084 48.5088 24.1934V11.7178ZM70.6572 26.3662C70.6572 27.0986 70.5555 27.7171 70.3521 28.2217C70.1567 28.7262 69.9045 29.1453 69.5952 29.479C69.286 29.8127 68.9401 30.0731 68.5576 30.2603C68.1833 30.4474 67.813 30.5858 67.4468 30.6753C67.0887 30.7729 66.7591 30.8299 66.458 30.8462C66.1569 30.8706 65.929 30.8828 65.7744 30.8828C65.1966 30.8828 64.6188 30.8421 64.041 30.7607C63.4632 30.6794 62.9342 30.5288 62.4541 30.3091C61.9821 30.0894 61.5874 29.7923 61.27 29.418C60.9608 29.0436 60.7858 28.5635 60.7451 27.9775C60.7451 27.8799 60.7614 27.77 60.7939 27.6479C60.8265 27.5259 60.8997 27.4079 61.0137 27.2939C61.1276 27.1882 61.2985 27.0946 61.5264 27.0132C61.7542 26.9399 62.0635 26.9033 62.4541 26.9033C62.9261 26.9033 63.2882 26.9399 63.5405 27.0132C63.7928 27.0946 63.98 27.1882 64.1021 27.2939C64.2241 27.4079 64.3014 27.5259 64.334 27.6479C64.3747 27.7782 64.4154 27.8962 64.4561 28.002C64.5212 28.1729 64.6473 28.2909 64.8345 28.356C65.0298 28.4292 65.2943 28.4658 65.6279 28.4658C65.929 28.4658 66.165 28.3966 66.3359 28.2583C66.515 28.12 66.6493 27.9531 66.7388 27.7578C66.8283 27.5706 66.8853 27.3753 66.9097 27.1719C66.9341 26.9766 66.9463 26.8138 66.9463 26.6836V23.9492C66.873 24.1934 66.7673 24.4375 66.6289 24.6816C66.4987 24.9258 66.3278 25.1455 66.1162 25.3408C65.9046 25.5361 65.6483 25.6948 65.3472 25.8169C65.0542 25.939 64.7083 26 64.3096 26C63.862 26 63.4144 25.9268 62.9668 25.7803C62.5192 25.6338 62.1123 25.3937 61.7461 25.0601C61.388 24.7183 61.0951 24.2707 60.8672 23.7173C60.6393 23.1639 60.5254 22.4762 60.5254 21.6543V18.1143C60.5254 17.3086 60.6393 16.6331 60.8672 16.0879C61.0951 15.5345 61.388 15.0869 61.7461 14.7451C62.1123 14.4033 62.5192 14.1592 62.9668 14.0127C63.4144 13.8662 63.862 13.793 64.3096 13.793C64.7083 13.793 65.0542 13.8581 65.3472 13.9883C65.6483 14.1104 65.9046 14.269 66.1162 14.4644C66.3278 14.6597 66.4987 14.8794 66.6289 15.1235C66.7673 15.3677 66.873 15.6077 66.9463 15.8438C66.9463 15.681 66.9585 15.4816 66.9829 15.2456C67.0155 15.0096 67.0928 14.7858 67.2148 14.5742C67.3369 14.3545 67.5241 14.1714 67.7764 14.0249C68.0286 13.8703 68.3786 13.793 68.8262 13.793C69.2656 13.793 69.6074 13.8743 69.8516 14.0371C70.0957 14.1917 70.2788 14.3993 70.4009 14.6597C70.5229 14.9201 70.5962 15.2171 70.6206 15.5508C70.645 15.8763 70.6572 16.21 70.6572 16.5518V26.3662ZM64.3096 21.3857C64.3096 21.5973 64.3177 21.8089 64.334 22.0205C64.3503 22.2321 64.395 22.4233 64.4683 22.5942C64.5415 22.757 64.6473 22.8913 64.7856 22.9971C64.9321 23.0947 65.1315 23.1436 65.3838 23.1436C65.7012 23.1436 65.9616 23.0418 66.165 22.8384C66.3685 22.6349 66.5272 22.3867 66.6411 22.0938C66.755 21.7926 66.8324 21.4793 66.873 21.1538C66.9219 20.8201 66.9463 20.5231 66.9463 20.2627C66.9382 19.6442 66.9097 19.1071 66.8608 18.6514C66.8201 18.1956 66.7428 17.8213 66.6289 17.5283C66.515 17.2272 66.3563 17.0075 66.1528 16.8691C65.9575 16.7227 65.7012 16.6494 65.3838 16.6494C65.1315 16.6494 64.9321 16.7023 64.7856 16.8081C64.6473 16.9058 64.5415 17.04 64.4683 17.2109C64.395 17.3818 64.3503 17.5731 64.334 17.7847C64.3177 17.9963 64.3096 18.2119 64.3096 18.4316V21.3857Z" fill="#1B1B1B"/>
<path d="M80.2568 13.793C80.4603 13.793 80.6678 13.8052 80.8794 13.8296C81.091 13.854 81.2782 13.915 81.4409 14.0127C81.6118 14.1104 81.7502 14.2609 81.856 14.4644C81.9618 14.6678 82.0146 14.9486 82.0146 15.3066C82.0146 15.6403 81.9618 15.9048 81.856 16.1001C81.7502 16.2873 81.6118 16.4338 81.4409 16.5396C81.2782 16.6372 81.091 16.7023 80.8794 16.7349C80.6678 16.7593 80.4603 16.7715 80.2568 16.7715H79.5244V23.2412C79.5244 23.5993 79.5041 23.9451 79.4634 24.2788C79.4308 24.6043 79.3454 24.8973 79.207 25.1577C79.0768 25.41 78.8815 25.6134 78.6211 25.7681C78.3688 25.9227 78.027 26 77.5957 26C77.1807 26 76.8511 25.9227 76.6069 25.7681C76.3709 25.6134 76.1919 25.41 76.0698 25.1577C75.9478 24.8973 75.8704 24.6043 75.8379 24.2788C75.8053 23.9451 75.7891 23.5993 75.7891 23.2412V16.7715H75.1055C74.8776 16.7715 74.6579 16.7593 74.4463 16.7349C74.2428 16.7023 74.0597 16.6372 73.897 16.5396C73.7424 16.4338 73.6162 16.2873 73.5186 16.1001C73.4209 15.9048 73.3721 15.6403 73.3721 15.3066C73.3721 14.9486 73.4209 14.6678 73.5186 14.4644C73.6162 14.2609 73.7424 14.1104 73.897 14.0127C74.0597 13.915 74.2428 13.854 74.4463 13.8296C74.6579 13.8052 74.8776 13.793 75.1055 13.793H75.7891C75.7891 13.0768 75.8216 12.4176 75.8867 11.8154C75.9518 11.2132 76.1105 10.7005 76.3628 10.2773C76.6151 9.84603 76.9894 9.51237 77.4858 9.27637C77.9823 9.03223 78.6618 8.91016 79.5244 8.91016C79.8906 8.91016 80.2365 8.94271 80.562 9.00781C80.8875 9.07292 81.1724 9.17464 81.4165 9.31299C81.6606 9.45133 81.8519 9.63444 81.9902 9.8623C82.1367 10.082 82.21 10.3506 82.21 10.668C82.21 10.9609 82.1571 11.2051 82.0513 11.4004C81.9536 11.5957 81.8315 11.7544 81.6851 11.8765C81.5386 11.9985 81.3758 12.084 81.1968 12.1328C81.0259 12.1816 80.8672 12.2061 80.7207 12.2061C80.5986 12.2061 80.4847 12.1776 80.3789 12.1206C80.2731 12.0636 80.151 12.0352 80.0127 12.0352C79.8988 12.0352 79.8092 12.0718 79.7441 12.145C79.6872 12.2183 79.6383 12.3159 79.5977 12.438C79.5651 12.5601 79.5448 12.6943 79.5366 12.8408C79.5285 12.9873 79.5244 13.1338 79.5244 13.2803V13.793H80.2568ZM85.2178 16.5762C85.2178 16.2262 85.2381 15.8844 85.2788 15.5508C85.3195 15.2171 85.4049 14.9201 85.5352 14.6597C85.6735 14.3993 85.8647 14.1917 86.1089 14.0371C86.3612 13.8743 86.6989 13.793 87.1221 13.793C87.5371 13.793 87.8667 13.8743 88.1108 14.0371C88.355 14.1917 88.5422 14.3993 88.6724 14.6597C88.8026 14.9201 88.884 15.2171 88.9165 15.5508C88.9572 15.8844 88.9775 16.2262 88.9775 16.5762V21.3369C88.9775 21.5729 88.9857 21.8008 89.002 22.0205C89.0264 22.2321 89.0752 22.4233 89.1484 22.5942C89.2217 22.757 89.3275 22.8913 89.4658 22.9971C89.6123 23.0947 89.8076 23.1436 90.0518 23.1436C90.3773 23.1436 90.6418 23.0337 90.8452 22.814C91.0568 22.5942 91.2196 22.2931 91.3335 21.9106C91.4556 21.5282 91.5369 21.0806 91.5776 20.5679C91.6183 20.047 91.6387 19.4896 91.6387 18.8955V16.5762C91.6387 16.2262 91.659 15.8844 91.6997 15.5508C91.7404 15.2171 91.8258 14.9201 91.9561 14.6597C92.0944 14.3993 92.2856 14.1917 92.5298 14.0371C92.7821 13.8743 93.1198 13.793 93.543 13.793C93.958 13.793 94.2876 13.8743 94.5317 14.0371C94.7759 14.1917 94.9631 14.3993 95.0933 14.6597C95.2235 14.9201 95.3049 15.2171 95.3374 15.5508C95.3781 15.8844 95.3984 16.2262 95.3984 16.5762V23.2412C95.3984 23.5911 95.3862 23.9329 95.3618 24.2666C95.3374 24.5921 95.2642 24.8851 95.1421 25.1455C95.02 25.3978 94.8328 25.6053 94.5806 25.7681C94.3364 25.9227 93.9906 26 93.543 26C93.0954 26 92.7454 25.9268 92.4932 25.7803C92.2409 25.6257 92.0496 25.4425 91.9194 25.231C91.7974 25.0194 91.7201 24.7956 91.6875 24.5596C91.6549 24.3236 91.6387 24.1201 91.6387 23.9492C91.5736 24.1852 91.4718 24.4253 91.3335 24.6694C91.1951 24.9136 91.0161 25.1333 90.7964 25.3286C90.5848 25.5239 90.3285 25.6867 90.0273 25.8169C89.7262 25.939 89.3763 26 88.9775 26C88.5299 26 88.0824 25.9268 87.6348 25.7803C87.1872 25.6338 86.7843 25.3896 86.4263 25.0479C86.0682 24.7061 85.7752 24.2585 85.5474 23.7051C85.3276 23.1517 85.2178 22.4681 85.2178 21.6543V16.5762ZM109.588 19.042C109.588 19.1722 109.58 19.3268 109.563 19.5059C109.547 19.6768 109.482 19.8436 109.368 20.0063C109.262 20.161 109.091 20.2952 108.855 20.4092C108.619 20.5231 108.286 20.5801 107.854 20.5801H102.996V21.752C102.996 21.9473 103.021 22.1507 103.069 22.3623C103.118 22.5739 103.2 22.7692 103.313 22.9482C103.436 23.1273 103.594 23.2738 103.79 23.3877C103.985 23.5016 104.225 23.5586 104.51 23.5586C104.835 23.5586 105.083 23.522 105.254 23.4487C105.433 23.3674 105.572 23.2697 105.669 23.1558C105.775 23.0418 105.869 22.9198 105.95 22.7896C106.032 22.6593 106.137 22.5373 106.268 22.4233C106.406 22.3094 106.593 22.2158 106.829 22.1426C107.073 22.0612 107.407 22.0205 107.83 22.0205C108.034 22.0205 108.229 22.0368 108.416 22.0693C108.611 22.1019 108.782 22.1629 108.929 22.2524C109.075 22.342 109.193 22.4681 109.283 22.6309C109.372 22.7855 109.417 22.9889 109.417 23.2412C109.417 23.7702 109.25 24.2137 108.917 24.5718C108.583 24.9217 108.164 25.2025 107.659 25.4141C107.155 25.6257 106.605 25.7762 106.011 25.8657C105.425 25.9552 104.876 26 104.363 26C103.688 25.9919 103.045 25.9064 102.435 25.7437C101.824 25.5809 101.283 25.3205 100.811 24.9624C100.347 24.6043 99.9769 24.1364 99.7002 23.5586C99.4235 22.9808 99.2852 22.2728 99.2852 21.4346V18.5781C99.2852 17.805 99.3747 17.1499 99.5537 16.6128C99.7409 16.0757 99.981 15.6281 100.274 15.27C100.567 14.9119 100.896 14.6353 101.263 14.4399C101.629 14.2365 101.999 14.0859 102.374 13.9883C102.748 13.8906 103.102 13.8296 103.436 13.8052C103.777 13.7808 104.07 13.7686 104.314 13.7686C105.136 13.7686 105.836 13.8418 106.414 13.9883C107 14.1348 107.488 14.326 107.879 14.562C108.27 14.798 108.579 15.0706 108.807 15.3799C109.035 15.6891 109.205 16.0106 109.319 16.3442C109.433 16.6698 109.507 17.0034 109.539 17.3452C109.572 17.6789 109.588 17.9922 109.588 18.2852V19.042ZM102.996 18.749H106.048C106.048 18.3665 106.036 18.0288 106.011 17.7358C105.995 17.4347 105.934 17.1825 105.828 16.979C105.73 16.7756 105.572 16.6209 105.352 16.5151C105.14 16.4093 104.835 16.3564 104.437 16.3564C104.103 16.3564 103.838 16.4093 103.643 16.5151C103.456 16.6209 103.313 16.7552 103.216 16.918C103.118 17.0726 103.057 17.2394 103.033 17.4185C103.008 17.5975 102.996 17.7562 102.996 17.8945V18.749ZM113.572 11.6201C113.572 11.2783 113.589 10.9447 113.621 10.6191C113.662 10.2936 113.747 10.0047 113.877 9.75244C114.008 9.50016 114.195 9.29671 114.439 9.14209C114.683 8.98747 115.013 8.91016 115.428 8.91016C115.851 8.91016 116.185 8.98747 116.429 9.14209C116.673 9.29671 116.856 9.50016 116.978 9.75244C117.108 10.0047 117.19 10.2936 117.222 10.6191C117.263 10.9447 117.283 11.2783 117.283 11.6201V23.2656C117.283 23.6074 117.263 23.9451 117.222 24.2788C117.19 24.6043 117.108 24.8973 116.978 25.1577C116.856 25.41 116.673 25.6134 116.429 25.7681C116.185 25.9227 115.851 26 115.428 26C115.013 26 114.683 25.9227 114.439 25.7681C114.195 25.6134 114.008 25.41 113.877 25.1577C113.747 24.8973 113.662 24.6043 113.621 24.2788C113.589 23.9451 113.572 23.6074 113.572 23.2656V11.6201ZM125.931 23.9736C125.931 24.6654 125.756 25.1781 125.406 25.5117C125.056 25.8372 124.563 26 123.929 26C123.278 26 122.777 25.8372 122.427 25.5117C122.077 25.1781 121.902 24.6654 121.902 23.9736C121.902 23.2738 122.077 22.7651 122.427 22.4478C122.777 22.1304 123.278 21.9717 123.929 21.9717C124.604 21.9717 125.105 22.1304 125.43 22.4478C125.764 22.7651 125.931 23.2738 125.931 23.9736Z" fill="#384AAD"/>
</svg>
