<svg width="20" height="20" viewBox="0 0 20 20" fill="none" xmlns="http://www.w3.org/2000/svg">
<path id="Vector" d="M4.8788 8.69778H12.9379C13.1255 8.69778 13.3112 8.72652 13.4845 8.78236C13.6579 8.8382 13.8153 8.92004 13.948 9.02322C14.0806 9.12639 14.1858 9.24888 14.2576 9.38369C14.3294 9.51849 14.3663 9.66298 14.3663 9.80889C14.3663 9.9548 14.3294 10.0993 14.2576 10.2341C14.1858 10.3689 14.0806 10.4914 13.948 10.5946C13.8153 10.6977 13.6579 10.7796 13.4845 10.8354C13.3112 10.8913 13.1255 10.92 12.9379 10.92H4.8788L6.48148 12.1667C6.74932 12.3752 6.89972 12.6579 6.89959 12.9526C6.89945 13.2474 6.7488 13.53 6.48077 13.7383C6.21274 13.9467 5.84929 14.0637 5.47038 14.0636C5.09146 14.0635 4.72812 13.9463 4.46028 13.7378L0.420722 10.5956C0.2874 10.4926 0.181588 10.3701 0.109381 10.2352C0.0371743 10.1003 0 9.95559 0 9.80944C0 9.6633 0.0371743 9.51861 0.109381 9.38369C0.181588 9.24877 0.2874 9.1263 0.420722 9.02333L4.45885 5.88111C4.72669 5.67262 5.09003 5.55543 5.46895 5.55533C5.84786 5.55523 6.21131 5.67221 6.47934 5.88056C6.74737 6.0889 6.89802 6.37153 6.89816 6.66627C6.89829 6.96102 6.7479 7.24373 6.48006 7.45222L4.8788 8.69778ZM18.5716 0C18.9504 0 19.3137 0.117063 19.5816 0.325437C19.8495 0.533811 20 0.816426 20 1.11111V18.8889C20 19.1836 19.8495 19.4662 19.5816 19.6746C19.3137 19.8829 18.9504 20 18.5716 20C18.1927 20 17.8294 19.8829 17.5615 19.6746C17.2937 19.4662 17.1432 19.1836 17.1432 18.8889V1.11111C17.1432 0.816426 17.2937 0.533811 17.5615 0.325437C17.8294 0.117063 18.1927 0 18.5716 0Z" fill="white"/>
</svg>
