<svg width="107" height="30" viewBox="0 0 107 30" fill="none" xmlns="http://www.w3.org/2000/svg">
<path d="M0.882812 11.8438C0.882812 5.83766 5.75172 0.96875 11.7578 0.96875H19.0079C25.014 0.96875 29.8829 5.83766 29.8829 11.8438V26.3437C29.8829 28.3458 28.2599 29.9688 26.2579 29.9688H11.7578C5.75171 29.9688 0.882812 25.0998 0.882812 19.0937V11.8438Z" fill="white"/>
<path d="M22.7179 10.9005L22.7267 10.8924L19.9233 8.32321C19.7993 8.21087 19.6319 8.14787 19.4576 8.14787C19.2832 8.14787 19.1158 8.21087 18.9918 8.32321C18.737 8.55678 18.737 8.94337 18.9918 9.17693L20.3803 10.4495C19.4576 10.7716 18.8336 11.6334 18.9918 12.6321C19.1324 13.518 19.9585 14.2348 20.9251 14.3315C21.3382 14.3717 21.6985 14.3073 22.0412 14.1704V19.9773C22.0412 20.4203 21.6458 20.7827 21.1624 20.7827C20.6791 20.7827 20.2836 20.4203 20.2836 19.9773V16.353C20.2836 15.4671 19.4927 14.7422 18.5261 14.7422H17.6473V9.10445C17.6473 8.21851 16.8564 7.49365 15.8897 7.49365H10.617C9.65029 7.49365 8.85938 8.21851 8.85938 9.10445V21.1854C8.85938 21.6284 9.25483 21.9908 9.73816 21.9908H16.7685C17.2518 21.9908 17.6473 21.6284 17.6473 21.1854V15.9503H18.9655V19.8645C18.9655 20.9196 19.7915 21.878 20.9339 21.9827C21.2403 22.0121 21.55 21.9821 21.8429 21.8946C22.1358 21.8072 22.4054 21.6643 22.6341 21.4752C22.8628 21.286 23.0456 21.055 23.1705 20.7969C23.2955 20.5389 23.3598 20.2596 23.3594 19.9773V12.326C23.3594 11.7703 23.1133 11.2629 22.7179 10.9005ZM15.8897 13.1314H10.617V9.90984C10.617 9.46687 11.0124 9.10445 11.4957 9.10445H15.0109C15.4942 9.10445 15.8897 9.46687 15.8897 9.90984V13.1314ZM21.1624 13.1314C20.6791 13.1314 20.2836 12.769 20.2836 12.326C20.2836 11.8831 20.6791 11.5206 21.1624 11.5206C21.6458 11.5206 22.0412 11.8831 22.0412 12.326C22.0412 12.769 21.6458 13.1314 21.1624 13.1314Z" fill="#384AAD"/>
<path d="M40.5965 10.1292C40.5965 9.83875 40.61 9.55504 40.6371 9.27809C40.6641 9.00113 40.7283 8.75458 40.8296 8.53842C40.9377 8.31551 41.093 8.1365 41.2957 8.0014C41.4983 7.8663 41.7787 7.79875 42.1367 7.79875C42.5217 7.79875 42.8223 7.8663 43.0384 8.0014C43.2546 8.1365 43.4133 8.31551 43.5147 8.53842C43.616 8.75458 43.6768 9.00113 43.6971 9.27809C43.7241 9.55504 43.7376 9.83875 43.7376 10.1292V19.0052H45.7235C46.0005 19.0052 46.2741 19.0187 46.5443 19.0457C46.8145 19.0728 47.0543 19.1369 47.2637 19.2382C47.4798 19.3396 47.6521 19.4882 47.7804 19.6841C47.9088 19.88 47.9729 20.1468 47.9729 20.4845C47.9729 20.829 47.9088 21.1026 47.7804 21.3053C47.6521 21.5012 47.4798 21.6498 47.2637 21.7511C47.0543 21.8524 46.8145 21.9166 46.5443 21.9436C46.2741 21.9706 46.0005 21.9841 45.7235 21.9841H42.8459C42.4879 21.9841 42.1704 21.9706 41.8935 21.9436C41.6165 21.9166 41.3801 21.8524 41.1842 21.7511C40.9951 21.6498 40.8498 21.5012 40.7485 21.3053C40.6472 21.1026 40.5965 20.829 40.5965 20.4845V10.1292ZM58.9808 22.2881C58.9808 22.896 58.8963 23.4094 58.7275 23.8282C58.5654 24.247 58.356 24.5949 58.0993 24.8719C57.8426 25.1488 57.5555 25.365 57.238 25.5203C56.9273 25.6757 56.6199 25.7905 56.316 25.8648C56.0187 25.9459 55.7452 25.9932 55.4952 26.0067C55.2453 26.027 55.0562 26.0371 54.9278 26.0371C54.4482 26.0371 53.9686 26.0033 53.489 25.9358C53.0094 25.8682 52.5703 25.7433 52.1718 25.5609C51.78 25.3785 51.4524 25.1319 51.189 24.8212C50.9323 24.5105 50.787 24.1119 50.7533 23.6256C50.7533 23.5445 50.7668 23.4533 50.7938 23.352C50.8208 23.2507 50.8816 23.1527 50.9762 23.0582C51.0708 22.9704 51.2126 22.8927 51.4017 22.8251C51.5909 22.7643 51.8476 22.7339 52.1718 22.7339C52.5636 22.7339 52.8642 22.7643 53.0736 22.8251C53.283 22.8927 53.4384 22.9704 53.5397 23.0582C53.641 23.1527 53.7052 23.2507 53.7322 23.352C53.766 23.4601 53.7997 23.558 53.8335 23.6458C53.8876 23.7877 53.9923 23.8856 54.1476 23.9397C54.3097 24.0005 54.5293 24.0309 54.8062 24.0309C55.0562 24.0309 55.2521 23.9735 55.3939 23.8586C55.5425 23.7438 55.654 23.6053 55.7283 23.4432C55.8026 23.2878 55.8499 23.1257 55.8701 22.9568C55.8904 22.7947 55.9005 22.6596 55.9005 22.5515V20.2819C55.8397 20.4845 55.7519 20.6872 55.6371 20.8898C55.529 21.0925 55.3872 21.2749 55.2115 21.437C55.0359 21.5991 54.8231 21.7308 54.5732 21.8321C54.33 21.9335 54.0429 21.9841 53.7119 21.9841C53.3404 21.9841 52.9689 21.9233 52.5974 21.8017C52.2258 21.6802 51.8881 21.4809 51.5841 21.2039C51.2869 20.9202 51.0437 20.5487 50.8546 20.0894C50.6655 19.63 50.5709 19.0592 50.5709 18.377V15.4386C50.5709 14.7699 50.6655 14.2092 50.8546 13.7566C51.0437 13.2973 51.2869 12.9258 51.5841 12.642C51.8881 12.3583 52.2258 12.1557 52.5974 12.0341C52.9689 11.9125 53.3404 11.8517 53.7119 11.8517C54.0429 11.8517 54.33 11.9058 54.5732 12.0138C54.8231 12.1152 55.0359 12.2469 55.2115 12.409C55.3872 12.5711 55.529 12.7535 55.6371 12.9562C55.7519 13.1588 55.8397 13.3581 55.9005 13.554C55.9005 13.4189 55.9107 13.2534 55.9309 13.0575C55.958 12.8616 56.0221 12.6758 56.1234 12.5002C56.2248 12.3178 56.3801 12.1658 56.5895 12.0442C56.7989 11.9159 57.0894 11.8517 57.4609 11.8517C57.8257 11.8517 58.1094 11.9193 58.312 12.0544C58.5147 12.1827 58.6667 12.355 58.768 12.5711C58.8693 12.7873 58.9301 13.0338 58.9504 13.3108C58.9707 13.581 58.9808 13.8579 58.9808 14.1416V22.2881ZM53.7119 18.1541C53.7119 18.3297 53.7187 18.5053 53.7322 18.681C53.7457 18.8566 53.7829 19.0153 53.8437 19.1572C53.9044 19.2923 53.9923 19.4037 54.1071 19.4916C54.2287 19.5726 54.3942 19.6131 54.6036 19.6131C54.867 19.6131 55.0832 19.5287 55.2521 19.3598C55.4209 19.191 55.5527 18.9849 55.6472 18.7418C55.7418 18.4918 55.806 18.2318 55.8397 17.9616C55.8803 17.6846 55.9005 17.4381 55.9005 17.2219C55.8938 16.7085 55.8701 16.2627 55.8296 15.8844C55.7958 15.5061 55.7317 15.1954 55.6371 14.9522C55.5425 14.7023 55.4108 14.5199 55.2419 14.4051C55.0798 14.2835 54.867 14.2227 54.6036 14.2227C54.3942 14.2227 54.2287 14.2666 54.1071 14.3544C53.9923 14.4355 53.9044 14.5469 53.8437 14.6888C53.7829 14.8306 53.7457 14.9894 53.7322 15.165C53.7187 15.3406 53.7119 15.5197 53.7119 15.702V18.1541Z" fill="#1B1B1B"/>
<path d="M66.9489 11.8517C67.1178 11.8517 67.29 11.8619 67.4657 11.8821C67.6413 11.9024 67.7967 11.953 67.9318 12.0341C68.0736 12.1152 68.1884 12.2401 68.2763 12.409C68.3641 12.5779 68.408 12.8109 68.408 13.1081C68.408 13.3851 68.3641 13.6046 68.2763 13.7667C68.1884 13.9221 68.0736 14.0437 67.9318 14.1315C67.7967 14.2126 67.6413 14.2666 67.4657 14.2936C67.29 14.3139 67.1178 14.324 66.9489 14.324H66.341V19.6942C66.341 19.9914 66.3241 20.2785 66.2903 20.5555C66.2633 20.8257 66.1924 21.0688 66.0775 21.285C65.9694 21.4944 65.8073 21.6633 65.5912 21.7916C65.3818 21.92 65.0981 21.9841 64.7401 21.9841C64.3955 21.9841 64.122 21.92 63.9193 21.7916C63.7234 21.6633 63.5748 21.4944 63.4735 21.285C63.3722 21.0688 63.308 20.8257 63.281 20.5555C63.254 20.2785 63.2405 19.9914 63.2405 19.6942V14.324H62.673C62.4839 14.324 62.3015 14.3139 62.1259 14.2936C61.957 14.2666 61.805 14.2126 61.6699 14.1315C61.5416 14.0437 61.4369 13.9221 61.3558 13.7667C61.2748 13.6046 61.2342 13.3851 61.2342 13.1081C61.2342 12.8109 61.2748 12.5779 61.3558 12.409C61.4369 12.2401 61.5416 12.1152 61.6699 12.0341C61.805 11.953 61.957 11.9024 62.1259 11.8821C62.3015 11.8619 62.4839 11.8517 62.673 11.8517H63.2405C63.2405 11.2573 63.2675 10.7101 63.3215 10.2103C63.3756 9.7104 63.5073 9.28484 63.7167 8.93358C63.9261 8.57557 64.2368 8.29862 64.6489 8.10273C65.0609 7.90008 65.6249 7.79875 66.341 7.79875C66.6449 7.79875 66.932 7.82577 67.2022 7.87981C67.4724 7.93385 67.7088 8.01829 67.9115 8.13312C68.1141 8.24796 68.2729 8.39994 68.3877 8.58908C68.5093 8.77147 68.5701 8.99438 68.5701 9.25782C68.5701 9.501 68.5262 9.70365 68.4384 9.86577C68.3573 10.0279 68.256 10.1596 68.1344 10.2609C68.0128 10.3623 67.8777 10.4332 67.7291 10.4737C67.5873 10.5142 67.4555 10.5345 67.3339 10.5345C67.2326 10.5345 67.1381 10.5109 67.0502 10.4636C66.9624 10.4163 66.8611 10.3927 66.7463 10.3927C66.6517 10.3927 66.5774 10.423 66.5234 10.4838C66.4761 10.5446 66.4355 10.6257 66.4018 10.727C66.3747 10.8283 66.3579 10.9398 66.3511 11.0614C66.3443 11.183 66.341 11.3046 66.341 11.4262V11.8517H66.9489ZM71.0667 14.1619C71.0667 13.8714 71.0836 13.5877 71.1174 13.3108C71.1512 13.0338 71.2221 12.7873 71.3302 12.5711C71.445 12.355 71.6037 12.1827 71.8064 12.0544C72.0158 11.9193 72.2961 11.8517 72.6474 11.8517C72.9919 11.8517 73.2655 11.9193 73.4681 12.0544C73.6708 12.1827 73.8261 12.355 73.9342 12.5711C74.0423 12.7873 74.1098 13.0338 74.1369 13.3108C74.1706 13.5877 74.1875 13.8714 74.1875 14.1619V18.1135C74.1875 18.3094 74.1943 18.4986 74.2078 18.681C74.228 18.8566 74.2686 19.0153 74.3294 19.1572C74.3902 19.2923 74.478 19.4037 74.5928 19.4916C74.7144 19.5726 74.8765 19.6131 75.0792 19.6131C75.3494 19.6131 75.5689 19.522 75.7378 19.3396C75.9134 19.1572 76.0485 18.9073 76.1431 18.5898C76.2444 18.2723 76.3119 17.9008 76.3457 17.4752C76.3795 17.0429 76.3964 16.5802 76.3964 16.0871V14.1619C76.3964 13.8714 76.4133 13.5877 76.447 13.3108C76.4808 13.0338 76.5517 12.7873 76.6598 12.5711C76.7747 12.355 76.9334 12.1827 77.136 12.0544C77.3454 11.9193 77.6258 11.8517 77.977 11.8517C78.3215 11.8517 78.5951 11.9193 78.7978 12.0544C79.0004 12.1827 79.1558 12.355 79.2639 12.5711C79.3719 12.7873 79.4395 13.0338 79.4665 13.3108C79.5003 13.5877 79.5172 13.8714 79.5172 14.1619V19.6942C79.5172 19.9847 79.507 20.2684 79.4868 20.5453C79.4665 20.8155 79.4057 21.0587 79.3044 21.2749C79.2031 21.4843 79.0477 21.6565 78.8383 21.7916C78.6356 21.92 78.3486 21.9841 77.977 21.9841C77.6055 21.9841 77.3151 21.9233 77.1056 21.8017C76.8962 21.6734 76.7375 21.5214 76.6294 21.3458C76.5281 21.1702 76.4639 20.9844 76.4369 20.7885C76.4099 20.5926 76.3964 20.4237 76.3964 20.2819C76.3423 20.4778 76.2579 20.677 76.1431 20.8797C76.0282 21.0823 75.8796 21.2647 75.6972 21.4268C75.5216 21.589 75.3088 21.7241 75.0589 21.8321C74.809 21.9335 74.5185 21.9841 74.1875 21.9841C73.816 21.9841 73.4445 21.9233 73.0729 21.8017C72.7014 21.6802 72.3671 21.4775 72.0698 21.1938C71.7726 20.9101 71.5294 20.5386 71.3403 20.0792C71.1579 19.6199 71.0667 19.0525 71.0667 18.377V14.1619ZM91.2951 16.2087C91.2951 16.3167 91.2883 16.4451 91.2748 16.5937C91.2613 16.7355 91.2073 16.874 91.1127 17.0091C91.0249 17.1375 90.883 17.2489 90.6871 17.3435C90.4912 17.4381 90.2143 17.4853 89.8563 17.4853H85.8236V18.4581C85.8236 18.6202 85.8438 18.789 85.8844 18.9647C85.9249 19.1403 85.9924 19.3024 86.087 19.451C86.1883 19.5996 86.3201 19.7212 86.4822 19.8158C86.6443 19.9104 86.8436 19.9576 87.08 19.9576C87.3502 19.9576 87.5562 19.9273 87.6981 19.8665C87.8467 19.7989 87.9615 19.7178 88.0426 19.6233C88.1304 19.5287 88.2081 19.4274 88.2756 19.3193C88.3432 19.2112 88.431 19.1099 88.5391 19.0153C88.6539 18.9208 88.8093 18.8431 89.0052 18.7823C89.2078 18.7147 89.4848 18.681 89.836 18.681C90.0049 18.681 90.167 18.6945 90.3224 18.7215C90.4845 18.7485 90.6263 18.7992 90.7479 18.8735C90.8695 18.9478 90.9675 19.0525 91.0418 19.1876C91.1161 19.3159 91.1532 19.4848 91.1532 19.6942C91.1532 20.1333 91.0147 20.5014 90.7378 20.7986C90.4608 21.0891 90.113 21.3221 89.6942 21.4978C89.2753 21.6734 88.8194 21.7984 88.3263 21.8727C87.8399 21.947 87.384 21.9841 86.9584 21.9841C86.3977 21.9774 85.8641 21.9064 85.3575 21.7714C84.8509 21.6363 84.4017 21.4201 84.0099 21.1229C83.6248 20.8257 83.3175 20.4372 83.0878 19.9576C82.8582 19.478 82.7433 18.8904 82.7433 18.1946V15.8236C82.7433 15.1819 82.8176 14.6381 82.9662 14.1923C83.1216 13.7465 83.3209 13.375 83.564 13.0777C83.8072 12.7805 84.0808 12.5509 84.3848 12.3887C84.6887 12.2199 84.9961 12.0949 85.3068 12.0138C85.6175 11.9328 85.9114 11.8821 86.1883 11.8619C86.472 11.8416 86.7152 11.8315 86.9179 11.8315C87.6001 11.8315 88.181 11.8922 88.6606 12.0138C89.147 12.1354 89.5523 12.2942 89.8765 12.4901C90.2008 12.686 90.4575 12.9122 90.6466 13.1689C90.8357 13.4256 90.9776 13.6924 91.0722 13.9694C91.1667 14.2396 91.2275 14.5165 91.2545 14.8003C91.2816 15.0772 91.2951 15.3373 91.2951 15.5804V16.2087ZM85.8236 15.9655H88.3567C88.3567 15.648 88.3465 15.3677 88.3263 15.1245C88.3128 14.8746 88.2621 14.6652 88.1743 14.4963C88.0932 14.3274 87.9615 14.1991 87.7791 14.1112C87.6035 14.0234 87.3502 13.9795 87.0192 13.9795C86.7422 13.9795 86.5227 14.0234 86.3606 14.1112C86.2052 14.1991 86.087 14.3105 86.006 14.4456C85.9249 14.574 85.8742 14.7124 85.854 14.861C85.8337 15.0097 85.8236 15.1414 85.8236 15.2562V15.9655ZM94.6023 10.0481C94.6023 9.76444 94.6158 9.48749 94.6428 9.21729C94.6766 8.94709 94.7475 8.70729 94.8556 8.49789C94.9637 8.28849 95.119 8.11961 95.3217 7.99127C95.5243 7.86293 95.7979 7.79875 96.1424 7.79875C96.4937 7.79875 96.7706 7.86293 96.9733 7.99127C97.1759 8.11961 97.3279 8.28849 97.4292 8.49789C97.5373 8.70729 97.6049 8.94709 97.6319 9.21729C97.6657 9.48749 97.6825 9.76444 97.6825 10.0481V19.7145C97.6825 19.9982 97.6657 20.2785 97.6319 20.5555C97.6049 20.8257 97.5373 21.0688 97.4292 21.285C97.3279 21.4944 97.1759 21.6633 96.9733 21.7916C96.7706 21.92 96.4937 21.9841 96.1424 21.9841C95.7979 21.9841 95.5243 21.92 95.3217 21.7916C95.119 21.6633 94.9637 21.4944 94.8556 21.285C94.7475 21.0688 94.6766 20.8257 94.6428 20.5555C94.6158 20.2785 94.6023 19.9982 94.6023 19.7145V10.0481ZM104.86 20.3022C104.86 20.8763 104.715 21.3019 104.425 21.5788C104.134 21.849 103.726 21.9841 103.199 21.9841C102.658 21.9841 102.243 21.849 101.952 21.5788C101.662 21.3019 101.517 20.8763 101.517 20.3022C101.517 19.7212 101.662 19.299 101.952 19.0356C102.243 18.7722 102.658 18.6404 103.199 18.6404C103.759 18.6404 104.175 18.7722 104.445 19.0356C104.722 19.299 104.86 19.7212 104.86 20.3022Z" fill="white"/>
</svg>
