<svg width="40" height="40" viewBox="0 0 40 40" fill="none" xmlns="http://www.w3.org/2000/svg">
<g id="Group 375">
<g id="Group 373">
<rect id="Rectangle 157" width="40" height="40" rx="15" fill="#EBEDF7"/>
<path id="Vector" d="M28.75 12H11.25C10.9185 12 10.6005 12.1317 10.3661 12.3661C10.1317 12.6005 10 12.9185 10 13.25V25.75C10 26.0815 10.1317 26.3995 10.3661 26.6339C10.6005 26.8683 10.9185 27 11.25 27H28.75C29.0815 27 29.3995 26.8683 29.6339 26.6339C29.8683 26.3995 30 26.0815 30 25.75V13.25C30 12.9185 29.8683 12.6005 29.6339 12.3661C29.3995 12.1317 29.0815 12 28.75 12ZM27.7875 25.75H12.2875L16.6625 21.225L15.7625 20.3563L11.25 25.025V14.2L19.0188 21.9312C19.253 22.1641 19.5698 22.2947 19.9 22.2947C20.2302 22.2947 20.547 22.1641 20.7812 21.9312L28.75 14.0062V24.9437L24.15 20.3438L23.2687 21.225L27.7875 25.75ZM12.0687 13.25H27.7375L19.9 21.0437L12.0687 13.25Z" fill="#384AAD"/>
</g>
<circle id="Ellipse 101" cx="34" cy="4" r="4" fill="#F44336"/>
</g>
</svg>
