<svg width="65" height="66" viewBox="0 0 65 66" fill="none" xmlns="http://www.w3.org/2000/svg">
<g id="Group 340">
<circle id="Ellipse 94" cx="32.5" cy="33.2273" r="32.5" fill="#384AAD" fill-opacity="0.2"/>
<g id="Group">
<path id="Vector" fill-rule="evenodd" clip-rule="evenodd" d="M32.9974 24.5606V30.5189C32.9974 30.8608 33.1247 31.1903 33.3545 31.4433C33.5844 31.6964 33.9002 31.8547 34.2404 31.8875L34.3724 31.8939H40.3307V41.0606C40.3309 41.5231 40.1562 41.9686 39.8417 42.3078C39.5272 42.6469 39.0961 42.8547 38.6349 42.8894L38.4974 42.8939H27.4974C27.0349 42.8941 26.5894 42.7194 26.2502 42.4049C25.9111 42.0904 25.7033 41.6593 25.6686 41.1981L25.6641 41.0606V26.3939C25.6639 25.9314 25.8386 25.4859 26.1531 25.1468C26.4676 24.8076 26.8987 24.5999 27.3599 24.5652L27.4974 24.5606H32.9974ZM32.9974 33.2689C32.7729 33.269 32.5562 33.3514 32.3884 33.5006C32.2206 33.6498 32.1134 33.8554 32.0871 34.0784L32.0807 34.1856V35.5606H30.7057C30.4721 35.5609 30.2474 35.6503 30.0775 35.8107C29.9076 35.9711 29.8053 36.1903 29.7917 36.4236C29.778 36.6568 29.8538 36.8865 30.0038 37.0656C30.1538 37.2448 30.3665 37.3599 30.5985 37.3875L30.7057 37.3939H32.0807V38.7689C32.081 39.0026 32.1705 39.2273 32.3308 39.3972C32.4912 39.5671 32.7104 39.6693 32.9437 39.683C33.1769 39.6967 33.4066 39.6208 33.5857 39.4709C33.7649 39.3209 33.8801 39.1082 33.9076 38.8762L33.9141 38.7689V37.3939H35.2891C35.5227 37.3937 35.7474 37.3042 35.9173 37.1438C36.0872 36.9834 36.1894 36.7642 36.2031 36.531C36.2168 36.2978 36.1409 36.0681 35.991 35.8889C35.841 35.7098 35.6283 35.5946 35.3963 35.567L35.2891 35.5606H33.9141V34.1856C33.9141 33.9425 33.8175 33.7093 33.6456 33.5374C33.4737 33.3655 33.2405 33.2689 32.9974 33.2689ZM34.8307 24.6C35.1272 24.663 35.4034 24.7984 35.6346 24.9942L35.7474 25.0978L39.7936 29.1439C40.0083 29.3585 40.1665 29.6231 40.2537 29.9139L40.2904 30.0606H34.8307V24.6Z" fill="#384AAD"/>
</g>
</g>
</svg>
