<svg width="40" height="40" viewBox="0 0 40 40" fill="none" xmlns="http://www.w3.org/2000/svg">
<g id="Group 376">
<g id="Group 374">
<rect id="Rectangle 158" width="40" height="40" rx="15" fill="#EBEDF7"/>
<path id="Vector" d="M20.5 30C21.1441 30 21.7618 29.7498 22.2173 29.3044C22.6727 28.859 22.9286 28.255 22.9286 27.6251H18.0714C18.0714 28.255 18.3273 28.859 18.7827 29.3044C19.2382 29.7498 19.8559 30 20.5 30ZM20.5 13.2785L19.5322 13.4697C18.4345 13.6884 17.4477 14.2714 16.7389 15.1198C16.0302 15.9682 15.643 17.0301 15.6429 18.1256C15.6429 18.8714 15.4801 20.7344 15.0855 22.569C14.8912 23.4798 14.6289 24.4286 14.2804 25.2503H26.7196C26.3711 24.4286 26.11 23.481 25.9145 22.569C25.5199 20.7344 25.3571 18.8714 25.3571 18.1256C25.3567 17.0303 24.9694 15.9687 24.2607 15.1205C23.552 14.2723 22.5653 13.6896 21.4678 13.4709L20.5 13.2785ZM28.0529 25.2503C28.3236 25.781 28.6369 26.2014 29 26.4377H12C12.3631 26.2014 12.6764 25.781 12.9471 25.2503C14.04 23.1129 14.4286 19.1706 14.4286 18.1256C14.4286 15.2521 16.5171 12.8534 19.2918 12.306C19.2748 12.1409 19.2935 11.9742 19.3465 11.8165C19.3995 11.6589 19.4857 11.5139 19.5995 11.3908C19.7134 11.2678 19.8523 11.1694 20.0074 11.1021C20.1625 11.0348 20.3303 11 20.5 11C20.6697 11 20.8375 11.0348 20.9926 11.1021C21.1477 11.1694 21.2866 11.2678 21.4005 11.3908C21.5143 11.5139 21.6005 11.6589 21.6535 11.8165C21.7065 11.9742 21.7252 12.1409 21.7082 12.306C23.0807 12.579 24.3145 13.3075 25.2008 14.368C26.087 15.4286 26.5713 16.756 26.5714 18.1256C26.5714 19.1706 26.96 23.1129 28.0529 25.2503Z" fill="#384AAD"/>
</g>
<circle id="Ellipse 100" cx="35" cy="4" r="4" fill="#F44336"/>
</g>
</svg>
