<svg width="65" height="66" viewBox="0 0 65 66" fill="none" xmlns="http://www.w3.org/2000/svg">
<g id="Group 338">
<circle id="Ellipse 94" cx="32.5" cy="33.2273" r="32.5" fill="#FFA800" fill-opacity="0.2"/>
<path id="Vector" d="M27.1846 24.7742H38.8156C38.7221 26.6922 38.2203 28.4308 37.467 29.8144C36.6786 31.2624 35.6244 32.3053 34.4912 32.7759L27.1846 24.7742ZM27.1846 24.7742C27.2773 26.6815 27.7719 28.4157 28.5158 29.7999C29.2945 31.2492 30.3369 32.2983 31.4598 32.7784L31.7159 32.8876L31.8678 32.9523V33.1175V34.337V34.5022L31.7159 34.567L31.4598 34.6761C30.3368 35.1562 29.2945 36.2053 28.5157 37.6545C27.7719 39.0388 27.2773 40.773 27.1846 42.6803H38.8156C38.722 40.7624 38.2202 39.0241 37.4669 37.6408C36.6786 36.1931 35.6244 35.1505 34.4914 34.6799L27.1846 24.7742ZM26.0001 23.4773H25.7501V23.7273V24.1257C25.7501 28.4348 27.5569 32.2176 30.4079 33.7273C27.5569 35.2369 25.7501 39.0197 25.7501 43.3288V43.7273V43.9773H26.0001H40H40.25V43.7273V43.3288C40.25 39.0002 38.4176 35.2196 35.5465 33.7272C38.4174 32.2348 40.25 28.4542 40.25 24.1257V23.7273V23.4773H40H26.0001ZM34.491 32.776L34.2304 32.8839L34.076 32.9478V33.1148V34.341V34.5081L34.2304 34.572L34.491 34.6798L34.491 32.776ZM37.595 28.2707L37.7527 27.7585L37.2589 27.9668C34.5058 29.1277 31.3062 29.1276 28.778 28.1389L28.2832 27.9454L28.4495 28.45C29.1361 30.5335 30.4828 32.1156 32.1428 32.5263C32.1349 32.5688 32.1307 32.6122 32.1307 32.6562V32.6564C32.1307 33.1135 32.5434 33.4289 32.9788 33.4289C33.4142 33.4289 33.8268 33.1135 33.8268 32.6564C33.8268 32.6142 33.8231 32.573 33.816 32.533C35.5345 32.1209 36.923 30.4525 37.595 28.2707ZM29.0767 41.9689L28.8112 42.3594H29.2834H36.7534H37.2277L36.9596 41.9681C36.2106 40.8748 35.5377 40.0447 34.8996 39.4877C34.2609 38.93 33.6339 38.6261 32.9822 38.6329C32.3312 38.6398 31.7112 38.9564 31.0849 39.5165C30.4591 40.0762 29.8034 40.8999 29.0767 41.9689ZM32.9788 33.5699C32.5434 33.5699 32.1307 33.8852 32.1307 34.3423C32.1307 34.7995 32.5434 35.1148 32.9788 35.1148C33.4141 35.1148 33.8268 34.7995 33.8268 34.3423C33.8268 33.8852 33.4141 33.5699 32.9788 33.5699ZM32.9788 35.2451C32.5433 35.2451 32.1307 35.5605 32.1307 36.0175C32.1307 36.4747 32.5434 36.7899 32.9788 36.7899C33.4141 36.7899 33.8268 36.4747 33.8268 36.0175C33.8268 35.5605 33.4142 35.2451 32.9788 35.2451ZM32.9788 36.931C32.5434 36.931 32.1307 37.2463 32.1307 37.7035C32.1307 38.1605 32.5434 38.4759 32.9788 38.4759C33.4142 38.4759 33.8268 38.1605 33.8268 37.7035C33.8268 37.2463 33.4141 36.931 32.9788 36.931Z" fill="#FFA800" stroke="#FFA800" stroke-width="0.5"/>
</g>
</svg>
