<svg width="17" height="17" viewBox="0 0 17 17" fill="none" xmlns="http://www.w3.org/2000/svg">
<path opacity="0.2" d="M15.9523 14.9563L15.9523 14.9563L15.9504 14.9544L13.882 12.887C15.0607 11.4579 15.6579 9.63481 15.5508 7.78198C15.441 5.8831 14.6 4.10053 13.2043 2.80834C11.8086 1.51614 9.96663 0.814758 8.06493 0.851364C6.16323 0.88797 4.34963 1.65972 3.00467 3.00467C1.65972 4.34963 0.88797 6.16323 0.851364 8.06493C0.814758 9.96663 1.51614 11.8086 2.80834 13.2043C4.10053 14.6 5.8831 15.441 7.78198 15.5508C9.63456 15.6578 11.4574 15.0608 12.8865 13.8824L14.9545 15.9505L14.9545 15.9505L14.9563 15.9523C15.0892 16.0806 15.2671 16.1516 15.4518 16.15C15.6365 16.1484 15.8131 16.0743 15.9437 15.9437C16.0743 15.8131 16.1484 15.6365 16.15 15.4518C16.1516 15.2671 16.0806 15.0892 15.9523 14.9563ZM12.4123 12.4123C11.2969 13.5278 9.78406 14.1544 8.2066 14.1544C6.62914 14.1544 5.11629 13.5278 4.00086 12.4123C2.88543 11.2969 2.25878 9.78406 2.25878 8.2066C2.25878 6.62914 2.88543 5.11629 4.00086 4.00086C5.11629 2.88543 6.62914 2.25878 8.2066 2.25878C9.78406 2.25878 11.2969 2.88543 12.4123 4.00086C13.5278 5.11629 14.1544 6.62914 14.1544 8.2066C14.1544 9.78406 13.5278 11.2969 12.4123 12.4123Z" fill="#1B1B1B" stroke="black" stroke-width="0.3"/>
</svg>
