<svg width="40" height="40" viewBox="0 0 40 40" fill="none" xmlns="http://www.w3.org/2000/svg">
<g id="Group 372">
<rect id="Rectangle 156" width="40" height="40" rx="15" fill="#384AAD" fill-opacity="0.1"/>
<g id="Group">
<path id="Vector" fill-rule="evenodd" clip-rule="evenodd" d="M20.0006 16.5116C19.0235 16.5116 18.0864 16.8792 17.3955 17.5333C16.7046 18.1875 16.3164 19.0748 16.3164 20C16.3164 20.9252 16.7046 21.8125 17.3955 22.4667C18.0864 23.1208 19.0235 23.4884 20.0006 23.4884C20.9778 23.4884 21.9149 23.1208 22.6058 22.4667C23.2967 21.8125 23.6849 20.9252 23.6849 20C23.6849 19.0748 23.2967 18.1875 22.6058 17.5333C21.9149 16.8792 20.9778 16.5116 20.0006 16.5116ZM17.7901 20C17.7901 19.4449 18.023 18.9125 18.4376 18.52C18.8521 18.1275 19.4144 17.907 20.0006 17.907C20.5869 17.907 21.1492 18.1275 21.5637 18.52C21.9783 18.9125 22.2112 19.4449 22.2112 20C22.2112 20.5551 21.9783 21.0875 21.5637 21.48C21.1492 21.8725 20.5869 22.093 20.0006 22.093C19.4144 22.093 18.8521 21.8725 18.4376 21.48C18.023 21.0875 17.7901 20.5551 17.7901 20Z" fill="#384AAD"/>
<path id="Vector_2" fill-rule="evenodd" clip-rule="evenodd" d="M19.9754 10C19.5382 10 19.1737 10 18.8751 10.0186C18.5698 10.0306 18.2687 10.0904 17.984 10.1953C17.6561 10.3238 17.3581 10.5122 17.1071 10.7497C16.8561 10.9872 16.657 11.2692 16.5211 11.5795C16.3786 11.9051 16.3403 12.2493 16.3246 12.6233C16.323 12.76 16.2848 12.8942 16.2135 13.0131C16.1422 13.132 16.0401 13.2319 15.9169 13.3033C15.79 13.3688 15.6476 13.4028 15.5031 13.402C15.3586 13.4012 15.2166 13.3656 15.0906 13.2986C14.7409 13.1237 14.4068 12.9833 14.0374 12.9367C13.6856 12.8929 13.3282 12.9152 12.9855 13.0021C12.6428 13.0891 12.3215 13.2392 12.0401 13.4437C11.8021 13.625 11.5973 13.8422 11.4339 14.0865C11.2669 14.3228 11.0841 14.6214 10.866 14.9795L10.8415 15.0205C10.6224 15.3786 10.4406 15.6772 10.309 15.9321C10.1714 16.1981 10.0634 16.4605 10.0241 16.7507C9.93033 17.4232 10.1226 18.1035 10.5585 18.6419C10.7855 18.9219 11.0812 19.1256 11.4152 19.3247C11.5398 19.3944 11.6435 19.4929 11.7167 19.6111C11.79 19.7292 11.8302 19.8631 11.8338 20C11.8302 20.1369 11.79 20.2708 11.7167 20.3889C11.6435 20.5071 11.5398 20.6056 11.4152 20.6753C11.0812 20.8744 10.7864 21.0781 10.5585 21.3581C10.3425 21.6246 10.184 21.9288 10.0921 22.2533C10.0003 22.5778 9.9768 22.9162 10.0231 23.2493C10.0634 23.5395 10.1704 23.8019 10.308 24.0679C10.4406 24.3228 10.6224 24.6214 10.8415 24.9795L10.866 25.0205C11.0841 25.3786 11.2669 25.6772 11.4339 25.9135C11.6078 26.1581 11.7945 26.3786 12.0401 26.5553C12.3215 26.7601 12.6427 26.9103 12.9854 26.9974C13.3281 27.0846 13.6856 27.1069 14.0374 27.0633C14.4068 27.0167 14.7409 26.8772 15.0906 26.7014C15.2165 26.6345 15.3583 26.5989 15.5026 26.5981C15.647 26.5973 15.7892 26.6312 15.9159 26.6967C16.0398 26.7676 16.1425 26.8672 16.2142 26.9863C16.2859 27.1053 16.3243 27.2397 16.3256 27.3767C16.3403 27.7507 16.3786 28.0949 16.5221 28.4205C16.6577 28.7309 16.8567 29.0131 17.1075 29.2507C17.3584 29.4884 17.6562 29.6769 17.984 29.8056C18.2689 29.9172 18.5636 29.9609 18.8751 29.9805C19.1737 30 19.5382 30 19.9754 30H20.0246C20.4618 30 20.8263 30 21.1249 29.9814C21.4373 29.9609 21.7311 29.9172 22.016 29.8047C22.3439 29.6762 22.6419 29.4878 22.8929 29.2503C23.1439 29.0128 23.343 28.7308 23.4789 28.4205C23.6214 28.0949 23.6597 27.7507 23.6754 27.3767C23.6768 27.2398 23.715 27.1055 23.7863 26.9864C23.8576 26.8673 23.9598 26.7673 24.0831 26.6958C24.2101 26.6304 24.3525 26.5965 24.497 26.5975C24.6415 26.5985 24.7834 26.6342 24.9094 26.7014C25.2591 26.8763 25.5932 27.0167 25.9626 27.0623C26.6729 27.1511 27.3913 26.969 27.9599 26.5563C28.2055 26.3777 28.3922 26.1581 28.5661 25.9135C28.7331 25.6772 28.9159 25.3786 29.134 25.0205L29.1585 24.9795C29.3776 24.6214 29.5594 24.3228 29.691 24.0679C29.8286 23.8019 29.9366 23.5386 29.9759 23.2493C30.0697 22.5768 29.8774 21.8965 29.4415 21.3581C29.2145 21.0781 28.9188 20.8744 28.5848 20.6753C28.4602 20.6056 28.3565 20.5071 28.2833 20.3889C28.21 20.2708 28.1698 20.1369 28.1662 20C28.1662 19.7414 28.3156 19.4847 28.5848 19.3247C28.9188 19.1256 29.2136 18.9219 29.4415 18.6419C29.6575 18.3754 29.816 18.0712 29.9079 17.7467C29.9997 17.4222 30.0232 17.0838 29.9769 16.7507C29.9302 16.4648 29.8339 16.1883 29.692 15.9321C29.5243 15.623 29.3464 15.319 29.1585 15.0205L29.134 14.9795C28.9545 14.6764 28.7651 14.3785 28.5661 14.0865C28.4027 13.8424 28.1979 13.6256 27.9599 13.4447C27.6785 13.2399 27.3573 13.0897 27.0146 13.0026C26.6719 12.9154 26.3144 12.8931 25.9626 12.9367C25.5932 12.9833 25.2591 13.1228 24.9094 13.2986C24.7835 13.3654 24.6417 13.4009 24.4974 13.4018C24.353 13.4026 24.2108 13.3687 24.0841 13.3033C23.9605 13.2321 23.8581 13.1324 23.7864 13.0134C23.7147 12.8945 23.6762 12.7602 23.6744 12.6233C23.6597 12.2493 23.6214 11.9051 23.4779 11.5795C23.3423 11.2691 23.1433 10.987 22.8925 10.7493C22.6416 10.5116 22.3438 10.3231 22.016 10.1944C21.7311 10.0828 21.4364 10.0391 21.1249 10.0195C20.8263 10 20.4618 10 20.0246 10H19.9754ZM18.5479 11.4837C18.6236 11.454 18.7385 11.427 18.9753 11.4112C19.218 11.3953 19.5323 11.3953 20 11.3953C20.4677 11.3953 20.782 11.3953 21.0247 11.4112C21.2615 11.427 21.3764 11.454 21.4521 11.4837C21.7537 11.6019 21.9924 11.8279 22.1172 12.1135C22.1565 12.2028 22.1889 12.3433 22.2017 12.6753C22.2312 13.4121 22.633 14.1219 23.3463 14.5116C24.0595 14.9023 24.9094 14.8763 25.5981 14.5321C25.9085 14.3767 26.053 14.333 26.1551 14.3209C26.4779 14.2805 26.8045 14.3632 27.0629 14.5507C27.1278 14.5981 27.2103 14.6791 27.3429 14.8651C27.4795 15.0567 27.6367 15.3144 27.8705 15.6977C28.1043 16.0809 28.2606 16.3395 28.3676 16.546C28.4728 16.7479 28.5052 16.8558 28.515 16.933C28.5577 17.2387 28.4704 17.5478 28.2724 17.7926C28.2095 17.8698 28.0975 17.9665 27.8008 18.1433C27.1406 18.5358 26.6925 19.2205 26.6925 20C26.6925 20.7795 27.1406 21.4642 27.8008 21.8567C28.0975 22.0335 28.2095 22.1302 28.2724 22.2074C28.4708 22.4521 28.5573 22.7609 28.515 23.067C28.5052 23.1442 28.4718 23.253 28.3676 23.454C28.2606 23.6614 28.1043 23.9191 27.8705 24.3023C27.6367 24.6856 27.4785 24.9433 27.3429 25.1349C27.2103 25.3209 27.1278 25.4019 27.0629 25.4493C26.8045 25.6368 26.4779 25.7195 26.1551 25.6791C26.053 25.667 25.9095 25.6233 25.5981 25.4679C24.9104 25.1237 24.0595 25.0977 23.3463 25.4874C22.633 25.8781 22.2312 26.5879 22.2017 27.3247C22.1889 27.6567 22.1565 27.7972 22.1172 27.8865C22.0555 28.0277 21.965 28.156 21.8509 28.2641C21.7367 28.3721 21.6012 28.4578 21.4521 28.5163C21.3764 28.546 21.2615 28.573 21.0247 28.5888C20.782 28.6047 20.4677 28.6047 20 28.6047C19.5323 28.6047 19.218 28.6047 18.9753 28.5888C18.7385 28.573 18.6236 28.546 18.5479 28.5163C18.3988 28.4578 18.2633 28.3721 18.1491 28.2641C18.035 28.156 17.9445 28.0277 17.8828 27.8865C17.8435 27.7972 17.8111 27.6567 17.7983 27.3247C17.7688 26.5879 17.367 25.8781 16.6537 25.4884C15.9405 25.0977 15.0906 25.1237 14.4019 25.4679C14.0915 25.6233 13.947 25.667 13.8449 25.6791C13.5221 25.7195 13.1955 25.6368 12.9371 25.4493C12.8722 25.4019 12.7897 25.3209 12.6571 25.1349C12.4723 24.8625 12.2963 24.5849 12.1295 24.3023C11.8957 23.9191 11.7394 23.6605 11.6324 23.454C11.5272 23.2521 11.4948 23.1442 11.485 23.067C11.4423 22.7613 11.5296 22.4522 11.7276 22.2074C11.7905 22.1302 11.9025 22.0335 12.1992 21.8567C12.8594 21.4642 13.3075 20.7795 13.3075 20C13.3075 19.2205 12.8594 18.5358 12.1992 18.1433C11.9025 17.9665 11.7905 17.8698 11.7276 17.7926C11.5296 17.5478 11.4423 17.2387 11.485 16.933C11.4948 16.8558 11.5282 16.747 11.6324 16.546C11.7394 16.3386 11.8957 16.0809 12.1295 15.6977C12.3633 15.3144 12.5215 15.0567 12.6571 14.8651C12.7897 14.6791 12.8722 14.5981 12.9371 14.5507C13.1955 14.3632 13.5221 14.2805 13.8449 14.3209C13.947 14.333 14.0905 14.3767 14.4019 14.5321C15.0896 14.8763 15.9405 14.9023 16.6537 14.5116C17.367 14.1219 17.7688 13.4121 17.7983 12.6753C17.8111 12.3433 17.8435 12.2028 17.8828 12.1135C18.0076 11.8279 18.2463 11.6019 18.5479 11.4837Z" fill="#384AAD"/>
</g>
</g>
</svg>
