<svg width="15" height="17" viewBox="0 0 15 17" fill="none" xmlns="http://www.w3.org/2000/svg">
<g id="Group 341" opacity="0.4">
<path id="Vector" d="M7.49776 10.1696C8.38536 10.1696 9.1049 9.42208 9.1049 8.50001C9.1049 7.57793 8.38536 6.83044 7.49776 6.83044C6.61017 6.83044 5.89062 7.57793 5.89062 8.50001C5.89062 9.42208 6.61017 10.1696 7.49776 10.1696Z" fill="#1B1B1B"/>
<path id="Vector_2" d="M14.6782 10.0304L14.6625 10.0172L13.6058 9.15635C13.5389 9.10135 13.4855 9.03065 13.45 8.95005C13.4145 8.86945 13.3979 8.78125 13.4015 8.6927V8.29061C13.3982 8.20261 13.415 8.11505 13.4505 8.03511C13.4861 7.95518 13.5394 7.88515 13.6061 7.83078L14.6625 6.96956L14.6782 6.95635C14.8411 6.81536 14.9505 6.61877 14.9866 6.40173C15.0228 6.18469 14.9835 5.96135 14.8758 5.77165L13.4457 3.20122C13.4441 3.19879 13.4426 3.19623 13.4414 3.19357C13.333 3.00649 13.165 2.86475 12.9666 2.79295C12.7681 2.72115 12.5517 2.72383 12.3549 2.80052L12.3432 2.80504L11.101 3.32435C11.0226 3.35728 10.9378 3.37038 10.8535 3.36258C10.7693 3.35478 10.6881 3.3263 10.6165 3.27948C10.5067 3.20759 10.3951 3.13965 10.2817 3.07565C10.2082 3.03424 10.145 2.97545 10.0974 2.90404C10.0498 2.83262 10.019 2.75058 10.0075 2.66452L9.8203 1.28748L9.81628 1.26243C9.77554 1.04915 9.66536 0.856929 9.50427 0.718085C9.34318 0.57924 9.14099 0.502231 8.93169 0.5H6.0683C5.85605 0.500706 5.65084 0.579206 5.48884 0.721671C5.32683 0.864136 5.21842 1.06143 5.1827 1.27878L5.17969 1.29826L4.99319 2.67809C4.98175 2.7639 4.95119 2.84575 4.90393 2.91712C4.85667 2.9885 4.79403 3.04743 4.72099 3.08922C4.60726 3.15285 4.4956 3.22036 4.38617 3.29165C4.31473 3.33819 4.2337 3.36645 4.14971 3.37413C4.06572 3.38181 3.98118 3.36868 3.90302 3.33583L2.65983 2.81409L2.64811 2.80922C2.45106 2.73244 2.23433 2.72986 2.03563 2.80193C1.83694 2.874 1.66885 3.01615 1.56061 3.20365L1.55626 3.2113L0.124235 5.78348C0.0162985 5.97337 -0.0230963 6.19695 0.0130947 6.41425C0.0492858 6.63155 0.158703 6.82839 0.321779 6.96956L0.337515 6.98278L1.39421 7.84365C1.46113 7.89865 1.51453 7.96935 1.55004 8.04995C1.58554 8.13055 1.60213 8.21875 1.59845 8.3073V8.70939C1.6018 8.79738 1.58501 8.88495 1.54944 8.96489C1.51388 9.04482 1.46056 9.11485 1.39387 9.16922L0.337515 10.0304L0.321779 10.0437C0.158864 10.1846 0.0495361 10.3812 0.0133452 10.5983C-0.0228457 10.8153 0.0164603 11.0386 0.124235 11.2283L1.55425 13.7988C1.5559 13.8012 1.55736 13.8038 1.55861 13.8064C1.66696 13.9935 1.83496 14.1353 2.03344 14.207C2.23191 14.2788 2.44833 14.2762 2.6451 14.1995L2.65682 14.195L3.898 13.6757C3.9764 13.6427 4.06121 13.6296 4.14545 13.6374C4.22968 13.6452 4.31092 13.6737 4.38248 13.7205C4.4923 13.7926 4.60391 13.8606 4.7173 13.9243C4.79082 13.9658 4.85394 14.0245 4.90158 14.096C4.94921 14.1674 4.98002 14.2494 4.99152 14.3355L5.17768 15.7125L5.1817 15.7376C5.22251 15.9512 5.33299 16.1437 5.49449 16.2826C5.65599 16.4215 5.85865 16.4982 6.0683 16.5H8.93169C9.14394 16.4993 9.34915 16.4208 9.51116 16.2783C9.67316 16.1359 9.78157 15.9386 9.81729 15.7212L9.8203 15.7017L10.0068 14.3219C10.0184 14.2359 10.0492 14.154 10.0968 14.0826C10.1443 14.0112 10.2073 13.9524 10.2807 13.9108C10.3952 13.8468 10.507 13.779 10.6155 13.7083C10.6869 13.6618 10.768 13.6335 10.852 13.6259C10.9359 13.6182 11.0205 13.6313 11.0986 13.6642L12.3418 14.1842L12.3536 14.189C12.5506 14.266 12.7674 14.2686 12.9661 14.1965C13.1648 14.1244 13.3329 13.9822 13.4411 13.7946C13.4424 13.792 13.4438 13.7894 13.4454 13.787L14.8754 11.2169C14.9836 11.027 15.0231 10.8033 14.987 10.586C14.9508 10.3686 14.8414 10.1716 14.6782 10.0304ZM10.1755 8.63078C10.1512 9.16942 9.97666 9.68909 9.67324 10.1266C9.36983 10.5641 8.95058 10.9006 8.46649 11.0952C7.98239 11.2898 7.4543 11.3341 6.94643 11.2226C6.43857 11.1112 5.97281 10.8489 5.6058 10.4676C5.23878 10.0862 4.98632 9.60236 4.87912 9.07475C4.77192 8.54715 4.8146 7.99855 5.00196 7.49567C5.18932 6.9928 5.51329 6.5573 5.93449 6.24216C6.35568 5.92701 6.85594 5.74579 7.37444 5.72052C7.74668 5.7035 8.11826 5.76712 8.46554 5.90736C8.81283 6.04759 9.12823 6.26137 9.39168 6.53509C9.65513 6.8088 9.86088 7.13648 9.99583 7.49727C10.1308 7.85807 10.192 8.24409 10.1755 8.63078Z" fill="#1B1B1B"/>
</g>
</svg>
