<svg width="17" height="20" viewBox="0 0 17 20" fill="none" xmlns="http://www.w3.org/2000/svg">
<path opacity="0.4" d="M0 20V0H10.303V10H13.3939V18.3333H15.4545V9.22222C15.3 9.31482 15.1369 9.37519 14.9651 9.40333C14.7934 9.43148 14.6131 9.44519 14.4242 9.44444C13.703 9.44444 13.0934 9.17593 12.5955 8.63889C12.0975 8.10185 11.8485 7.44444 11.8485 6.66667C11.8485 6.07407 11.9989 5.54148 12.2998 5.06889C12.6006 4.5963 12.9997 4.25852 13.497 4.05556L11.3333 1.72222L12.4151 0.555556L16.2273 4.55556C16.4848 4.83333 16.6782 5.15741 16.8073 5.52778C16.9365 5.89815 17.0007 6.27778 17 6.66667V20H11.8485V11.6667H10.303V20H0ZM2.06061 7.77778H8.24242V2.22222H2.06061V7.77778ZM14.4242 7.77778C14.7162 7.77778 14.961 7.67111 15.1588 7.45778C15.3567 7.24444 15.4552 6.98074 15.4545 6.66667C15.4545 6.35185 15.3556 6.08778 15.1578 5.87444C14.96 5.66111 14.7155 5.55482 14.4242 5.55556C14.1323 5.55556 13.8875 5.66222 13.6896 5.87556C13.4918 6.08889 13.3932 6.35259 13.3939 6.66667C13.3939 6.98148 13.4928 7.24556 13.6907 7.45889C13.8885 7.67222 14.133 7.77852 14.4242 7.77778Z" fill="#1B1B1B"/>
</svg>
