<svg width="20" height="20" viewBox="0 0 20 20" fill="none" xmlns="http://www.w3.org/2000/svg">
<path d="M4 12H6.45L12.35 6.15C12.45 6.05 12.5 5.925 12.5 5.775C12.5 5.625 12.45 5.5 12.35 5.4L10.6 3.65C10.5 3.55 10.375 3.5 10.225 3.5C10.075 3.5 9.95 3.55 9.85 3.65L4 9.55V12ZM8.5 12H16V10H10.5L8.5 12ZM0 20V2C0 1.45 0.196 0.979002 0.588 0.587002C0.98 0.195002 1.45067 -0.000664969 2 1.69779e-06H18C18.55 1.69779e-06 19.021 0.196002 19.413 0.588002C19.805 0.980002 20.0007 1.45067 20 2V14C20 14.55 19.804 15.021 19.412 15.413C19.02 15.805 18.5493 16.0007 18 16H4L0 20Z" fill="#01CBD4"/>
</svg>
