<svg width="15" height="17" viewBox="0 0 15 17" fill="none" xmlns="http://www.w3.org/2000/svg">
<path id="Vector" d="M12.5556 9.6895V7C12.5556 4.58725 10.9775 2.55475 8.83972 1.9435C8.62811 1.39 8.111 1 7.5 1C6.889 1 6.37189 1.39 6.16028 1.9435C4.0225 2.5555 2.44445 4.58725 2.44445 7V9.6895L1.21161 10.9697C1.14441 11.0393 1.09112 11.1219 1.05481 11.2129C1.01849 11.3039 0.999863 11.4015 1 11.5V13C1 13.1989 1.07609 13.3897 1.21153 13.5303C1.34698 13.671 1.53068 13.75 1.72222 13.75H13.2778C13.4693 13.75 13.653 13.671 13.7885 13.5303C13.9239 13.3897 14 13.1989 14 13V11.5C14.0001 11.4015 13.9815 11.3039 13.9452 11.2129C13.9089 11.1219 13.8556 11.0393 13.7884 10.9697L12.5556 9.6895ZM12.5556 12.25H2.44445V11.8105L3.67728 10.5302C3.74448 10.4607 3.79777 10.3781 3.83408 10.2871C3.8704 10.1961 3.88903 10.0985 3.88889 10V7C3.88889 4.93225 5.50883 3.25 7.5 3.25C9.49117 3.25 11.1111 4.93225 11.1111 7V10C11.1111 10.1995 11.1869 10.39 11.3227 10.5302L12.5556 11.8105V12.25ZM7.5 16C7.94727 16.0006 8.38361 15.8564 8.74835 15.5876C9.1131 15.3188 9.38813 14.9386 9.53522 14.5H5.46478C5.61187 14.9386 5.8869 15.3188 6.25165 15.5876C6.61639 15.8564 7.05273 16.0006 7.5 16Z" fill="#1B1B1B" stroke="#1B1B1B" stroke-width="0.4"/>
</svg>
