<svg width="50" height="50" viewBox="0 0 50 50" fill="none" xmlns="http://www.w3.org/2000/svg">
<g id="Group 180">
<circle id="Ellipse 71" cx="25" cy="25" r="25" fill="#D7DBEF"/>
<path id="Vector" fill-rule="evenodd" clip-rule="evenodd" d="M22.778 34H27.222C30.343 34 31.904 34 33.025 33.265C33.5087 32.948 33.9253 32.5389 34.251 32.061C35 30.961 35 29.428 35 26.364C35 23.299 35 21.767 34.251 20.667C33.9253 20.1892 33.5087 19.78 33.025 19.463C32.305 18.99 31.403 18.821 30.022 18.761C29.363 18.761 28.796 18.271 28.667 17.636C28.5684 17.1709 28.3123 16.7541 27.9418 16.456C27.5714 16.1579 27.1095 15.9969 26.634 16H23.366C22.378 16 21.527 16.685 21.333 17.636C21.204 18.271 20.637 18.761 19.978 18.761C18.598 18.821 17.696 18.991 16.975 19.463C16.4916 19.7801 16.0754 20.1892 15.75 20.667C15 21.767 15 23.299 15 26.364C15 29.428 15 30.96 15.749 32.061C16.073 32.537 16.489 32.946 16.975 33.265C18.096 34 19.657 34 22.778 34ZM25 22.273C22.699 22.273 20.833 24.104 20.833 26.363C20.833 28.623 22.699 30.454 25 30.454C27.301 30.454 29.167 28.623 29.167 26.364C29.167 24.104 27.301 22.273 25 22.273ZM25 23.909C23.62 23.909 22.5 25.008 22.5 26.364C22.5 27.719 23.62 28.818 25 28.818C26.38 28.818 27.5 27.719 27.5 26.364C27.5 25.008 26.38 23.909 25 23.909ZM29.722 23.091C29.722 22.639 30.095 22.273 30.556 22.273H31.666C32.126 22.273 32.5 22.639 32.5 23.091C32.4979 23.3099 32.409 23.5191 32.2528 23.6724C32.0966 23.8258 31.8859 23.9109 31.667 23.909H30.556C30.4475 23.9101 30.3399 23.8898 30.2393 23.8492C30.1387 23.8087 30.047 23.7487 29.9696 23.6728C29.8921 23.5968 29.8304 23.5064 29.7879 23.4065C29.7454 23.3067 29.723 23.1995 29.722 23.091Z" fill="#384AAD"/>
</g>
</svg>
