<svg width="15" height="18" viewBox="0 0 15 18" fill="none" xmlns="http://www.w3.org/2000/svg">
<path id="Vector" opacity="0.4" d="M7.5 0C8.49456 0 9.44839 0.474106 10.1517 1.31802C10.8549 2.16193 11.25 3.30653 11.25 4.5C11.25 5.69347 10.8549 6.83807 10.1517 7.68198C9.44839 8.52589 8.49456 9 7.5 9C6.50544 9 5.55161 8.52589 4.84835 7.68198C4.14509 6.83807 3.75 5.69347 3.75 4.5C3.75 3.30653 4.14509 2.16193 4.84835 1.31802C5.55161 0.474106 6.50544 0 7.5 0ZM7.5 11.25C11.6438 11.25 15 13.2637 15 15.75V18H0V15.75C0 13.2637 3.35625 11.25 7.5 11.25Z" fill="#1B1B1B"/>
</svg>
