<svg width="69" height="69" viewBox="0 0 69 69" fill="none" xmlns="http://www.w3.org/2000/svg">
<g id="Group 339">
<circle id="Ellipse 94" cx="34.4304" cy="34.6856" r="33.9773" fill="#19D743" fill-opacity="0.2"/>
<path id="Vector" d="M43.6823 35.2084L45.001 36.7909C45.1287 36.9474 45.2279 37.1176 45.2988 37.3013C45.3697 37.4851 45.4052 37.6791 45.4052 37.8833C45.4052 38.0875 45.3733 38.2815 45.3095 38.4652C45.2457 38.649 45.1535 38.8158 45.0329 38.9655C44.9124 39.1152 44.7671 39.2446 44.5969 39.3535C44.4267 39.4624 44.2424 39.544 44.0439 39.5985L42.0125 40.1396C42.0267 40.4867 42.0444 40.8372 42.0657 41.1912C42.087 41.5451 42.1011 41.899 42.1082 42.253C42.1082 42.498 42.0621 42.726 41.97 42.937C41.8778 43.148 41.7466 43.3318 41.5765 43.4883C41.4063 43.6449 41.2113 43.7708 40.9915 43.8661C40.7717 43.9614 40.5307 44.009 40.2683 44.009C40.0485 44.009 39.8323 43.9716 39.6196 43.8967L37.652 43.182L36.4928 44.8666C36.3226 45.1184 36.1028 45.3124 35.8334 45.4485C35.5639 45.5847 35.2697 45.6561 34.9506 45.6629C34.6387 45.6629 34.348 45.5949 34.0785 45.4587C33.8091 45.3226 33.5858 45.1252 33.4085 44.8666L32.2493 43.182L30.2817 43.8967C30.069 43.9716 29.8528 44.009 29.633 44.009C29.3777 44.009 29.1402 43.9648 28.9204 43.8763C28.7006 43.7878 28.5056 43.6619 28.3355 43.4985C28.1653 43.3352 28.0341 43.148 27.9419 42.937C27.8498 42.726 27.8001 42.498 27.7931 42.253C27.7931 41.899 27.8037 41.5451 27.825 41.1912C27.8462 40.8372 27.8675 40.4867 27.8888 40.1396L25.8574 39.5985C25.6518 39.544 25.4675 39.4624 25.3044 39.3535C25.1413 39.2446 24.9995 39.1152 24.879 38.9655C24.7584 38.8158 24.6663 38.649 24.6024 38.4652C24.5386 38.2815 24.5032 38.0875 24.4961 37.8833C24.4961 37.6859 24.5315 37.4953 24.6024 37.3116C24.6733 37.1278 24.7726 36.9542 24.9002 36.7909L26.219 35.2084L24.9002 33.6259C24.6308 33.306 24.4961 32.9419 24.4961 32.5335C24.4961 32.3293 24.528 32.1353 24.5918 31.9516C24.6556 31.7678 24.7478 31.601 24.8683 31.4513C24.9889 31.3015 25.1307 31.1722 25.2937 31.0633C25.4568 30.9544 25.6447 30.8727 25.8574 30.8183L27.8888 30.2772C27.8746 29.9301 27.8569 29.5795 27.8356 29.2256C27.8143 28.8717 27.8001 28.5178 27.7931 28.1638C27.7931 27.9188 27.8391 27.6908 27.9313 27.4798C28.0235 27.2688 28.1547 27.085 28.3248 26.9285C28.495 26.7719 28.69 26.646 28.9098 26.5507C29.1296 26.4554 29.3706 26.4078 29.633 26.4078C29.8528 26.4078 30.069 26.4452 30.2817 26.5201L32.2493 27.2348L33.4085 25.5502C33.5787 25.2984 33.7985 25.1044 34.0679 24.9682C34.3373 24.8321 34.6316 24.7607 34.9506 24.7538C35.2626 24.7538 35.5533 24.8219 35.8227 24.958C36.0922 25.0942 36.3155 25.2915 36.4928 25.5502L37.652 27.2348L39.6196 26.5201C39.8323 26.4452 40.0485 26.4078 40.2683 26.4078C40.5236 26.4078 40.7611 26.452 40.9809 26.5405C41.2007 26.629 41.3957 26.7549 41.5658 26.9183C41.736 27.0816 41.8672 27.2688 41.9593 27.4798C42.0515 27.6908 42.1011 27.9188 42.1082 28.1638C42.1082 28.5178 42.0976 28.8717 42.0763 29.2256C42.0551 29.5795 42.0338 29.9301 42.0125 30.2772L44.0439 30.8183C44.2424 30.8727 44.4267 30.9544 44.5969 31.0633C44.7671 31.1722 44.9089 31.3015 45.0223 31.4513C45.1358 31.601 45.2279 31.7678 45.2988 31.9516C45.3697 32.1353 45.4052 32.3293 45.4052 32.5335C45.4052 32.9419 45.2705 33.306 45.001 33.6259L43.6823 35.2084ZM33.5893 38.9757L39.6408 33.1767L38.4284 32.0128L33.5893 36.6684L31.4729 34.6264L30.2605 35.7903L33.5893 38.9757Z" fill="#19D743"/>
</g>
</svg>
