<svg width="20" height="17" viewBox="0 0 20 17" fill="none" xmlns="http://www.w3.org/2000/svg">
<path id="Vector" d="M10.0003 6.8C10.8843 6.8 11.732 6.44178 12.3571 5.80416C12.9821 5.16654 13.3332 4.30173 13.3332 3.4C13.3332 2.49826 12.9821 1.63346 12.3571 0.995837C11.732 0.358213 10.8843 0 10.0003 0C9.11641 0 8.26868 0.358213 7.64364 0.995837C7.0186 1.63346 6.66746 2.49826 6.66746 3.4C6.66746 4.30173 7.0186 5.16654 7.64364 5.80416C8.26868 6.44178 9.11641 6.8 10.0003 6.8ZM5.5565 5.66666C5.5565 6.26782 5.3224 6.84436 4.90571 7.26944C4.48902 7.69452 3.92386 7.93333 3.33457 7.93333C2.74528 7.93333 2.18013 7.69452 1.76343 7.26944C1.34674 6.84436 1.11265 6.26782 1.11265 5.66666C1.11265 5.06551 1.34674 4.48897 1.76343 4.06389C2.18013 3.63881 2.74528 3.4 3.33457 3.4C3.92386 3.4 4.48902 3.63881 4.90571 4.06389C5.3224 4.48897 5.5565 5.06551 5.5565 5.66666ZM0.546056 13.9695C0.356399 13.8595 0.214372 13.6806 0.148331 13.4685C-0.0474144 12.8218 -0.0494671 12.1301 0.142436 11.4822C0.334339 10.8342 0.711462 10.2594 1.22551 9.83143C1.73956 9.40344 2.36714 9.14171 3.02788 9.07977C3.68862 9.01782 4.35245 9.15848 4.93436 9.48373C3.73855 10.6825 2.9901 12.2693 2.81797 13.9706C2.79242 14.2222 2.80242 14.4715 2.84575 14.7118C2.03492 14.6403 1.24962 14.3868 0.546056 13.9695ZM17.1549 14.7107C17.9657 14.6395 18.751 14.3864 19.4546 13.9695C19.6439 13.8593 19.7855 13.6804 19.8513 13.4685C20.0473 12.8217 20.0496 12.1299 19.8578 11.4817C19.6661 10.8335 19.289 10.2585 18.7748 9.83037C18.2607 9.4022 17.633 9.14036 16.9721 9.0784C16.3112 9.01645 15.6472 9.15719 15.0652 9.4826C16.2621 10.6814 17.0114 12.2686 17.1838 13.9706C17.2086 14.2178 17.1989 14.4674 17.1549 14.7118V14.7107ZM18.8881 5.66666C18.8881 6.26782 18.654 6.84436 18.2373 7.26944C17.8206 7.69452 17.2554 7.93333 16.6661 7.93333C16.0768 7.93333 15.5117 7.69452 15.095 7.26944C14.6783 6.84436 14.4442 6.26782 14.4442 5.66666C14.4442 5.06551 14.6783 4.48897 15.095 4.06389C15.5117 3.63881 16.0768 3.4 16.6661 3.4C17.2554 3.4 17.8206 3.63881 18.2373 4.06389C18.654 4.48897 18.8881 5.06551 18.8881 5.66666ZM4.78327 14.9487C4.6737 14.8486 4.58876 14.7236 4.5353 14.5838C4.48184 14.444 4.46137 14.2933 4.47553 14.144C4.61684 12.7494 5.25992 11.4578 6.28046 10.5187C7.30101 9.57972 8.62656 9.05997 10.0009 9.05997C11.3752 9.05997 12.7008 9.57972 13.7213 10.5187C14.7419 11.4578 15.385 12.7494 15.5263 14.144C15.5405 14.2933 15.5201 14.444 15.4666 14.5838C15.4132 14.7236 15.3282 14.8486 15.2185 14.9487C13.7901 16.2712 11.9294 17.0026 10.0003 17C8.07166 17.0025 6.2114 16.271 4.78327 14.9487Z" fill="#FF8A00"/>
</svg>
