<svg width="33" height="40" viewBox="0 0 33 40" fill="none" xmlns="http://www.w3.org/2000/svg">
<path d="M16.5 6.82916C15.7361 6.82916 15.0865 6.56149 14.5512 6.02616C14.0158 5.49083 13.7488 4.84183 13.75 4.07916C13.75 3.52916 13.9028 2.95594 14.2083 2.3595C14.5139 1.76305 15.0028 1.09878 15.675 0.366666C15.7361 0.305555 16.0111 0.183333 16.5 0C16.6528 0 16.7982 0.0305556 16.9363 0.0916667C17.0744 0.152778 17.204 0.244444 17.325 0.366666C17.9972 1.1 18.4861 1.76489 18.7917 2.36133C19.0972 2.95777 19.25 3.53038 19.25 4.07916C19.25 4.84305 18.9829 5.49266 18.4488 6.02799C17.9147 6.56332 17.2651 6.83038 16.5 6.82916ZM7.33334 6.82916C6.56945 6.82916 5.91984 6.56149 5.3845 6.02616C4.84917 5.49083 4.58212 4.84183 4.58334 4.07916C4.58334 3.52916 4.73611 2.95594 5.04167 2.3595C5.34723 1.76305 5.83612 1.09878 6.50834 0.366666C6.56945 0.305555 6.84445 0.183333 7.33334 0C7.48611 0 7.63156 0.0305556 7.76967 0.0916667C7.90778 0.152778 8.03734 0.244444 8.15834 0.366666C8.83056 1.1 9.31945 1.76489 9.625 2.36133C9.93056 2.95777 10.0833 3.53038 10.0833 4.07916C10.0833 4.84305 9.81628 5.49266 9.28217 6.02799C8.74806 6.56332 8.09845 6.83038 7.33334 6.82916ZM25.6667 6.82916C24.9028 6.82916 24.2532 6.56149 23.7178 6.02616C23.1825 5.49083 22.9154 4.84183 22.9167 4.07916C22.9167 3.52916 23.0694 2.95594 23.375 2.3595C23.6806 1.76305 24.1694 1.09878 24.8417 0.366666C24.9028 0.305555 25.1778 0.183333 25.6667 0C25.8194 0 25.9649 0.0305556 26.103 0.0916667C26.2411 0.152778 26.3707 0.244444 26.4917 0.366666C27.1639 1.1 27.6528 1.76489 27.9583 2.36133C28.2639 2.95777 28.4167 3.53038 28.4167 4.07916C28.4167 4.84305 28.149 5.49266 27.6137 6.02799C27.0783 6.56332 26.4293 6.83038 25.6667 6.82916ZM2.75 39.8291C1.98612 39.8291 1.3365 39.5614 0.801171 39.0261C0.265838 38.4908 -0.00121805 37.8418 4.17616e-06 37.0791V23.3291L3.85 12.3292C4.03334 11.7792 4.3615 11.3361 4.8345 11C5.3075 10.6639 5.83489 10.4958 6.41667 10.4958H26.5833C27.1639 10.4958 27.6913 10.6639 28.1655 11C28.6397 11.3361 28.9679 11.7792 29.15 12.3292L33 23.3291V37.0791C33 37.843 32.7329 38.4926 32.1988 39.0279C31.6647 39.5633 31.0151 39.8303 30.25 39.8291C29.4861 39.8291 28.8365 39.5614 28.3012 39.0261C27.7658 38.4908 27.4988 37.8418 27.5 37.0791V36.1625H5.5V37.0791C5.5 37.843 5.23234 38.4926 4.697 39.0279C4.16167 39.5633 3.51267 39.8303 2.75 39.8291ZM5.13334 19.6625H27.8667L25.9417 14.1625H7.05834L5.13334 19.6625ZM8.25 30.6625C9.01389 30.6625 9.6635 30.3948 10.1988 29.8595C10.7342 29.3241 11.0012 28.6751 11 27.9125C11 27.1486 10.7323 26.499 10.197 25.9636C9.66167 25.4283 9.01267 25.1612 8.25 25.1625C7.48611 25.1625 6.8365 25.4301 6.30117 25.9655C5.76584 26.5008 5.49878 27.1498 5.5 27.9125C5.5 28.6764 5.76767 29.326 6.303 29.8613C6.83834 30.3966 7.48734 30.6637 8.25 30.6625ZM24.75 30.6625C25.5139 30.6625 26.1635 30.3948 26.6988 29.8595C27.2342 29.3241 27.5012 28.6751 27.5 27.9125C27.5 27.1486 27.2323 26.499 26.697 25.9636C26.1617 25.4283 25.5127 25.1612 24.75 25.1625C23.9861 25.1625 23.3365 25.4301 22.8012 25.9655C22.2658 26.5008 21.9988 27.1498 22 27.9125C22 28.6764 22.2677 29.326 22.803 29.8613C23.3383 30.3966 23.9873 30.6637 24.75 30.6625Z" fill="#384AAD"/>
</svg>
