<svg width="101" height="101" viewBox="0 0 101 101" fill="none" xmlns="http://www.w3.org/2000/svg">
<g opacity="0.8">
<path d="M80.6581 88.5591C80.7326 91.1405 78.8663 93.3777 76.3056 93.7367C57.0877 96.4269 44.5748 96.5953 25.2804 95.161C24.3169 95.0878 23.3955 94.7357 22.6288 94.1475C21.8622 93.5593 21.2834 92.7605 20.9632 91.8488C20.643 90.9371 20.5952 89.9519 20.8258 89.0134C21.0563 88.075 21.5551 87.2241 22.2613 86.5645C44.3935 66.1204 57.376 66.0185 78.9521 84.9092C80.0041 85.8293 80.6179 87.1646 80.6581 88.5591Z" fill="#C6B9B9"/>
<path d="M70.5 45.4999C70.5 50.8043 68.3929 55.8913 64.6421 59.642C60.8914 63.3928 55.8043 65.4999 50.5 65.4999C45.1957 65.4999 40.1086 63.3928 36.3579 59.642C32.6071 55.8913 30.5 50.8043 30.5 45.4999C30.5 40.1956 32.6071 35.1085 36.3579 31.3578C40.1086 27.6071 45.1957 25.5 50.5 25.5C55.8043 25.5 60.8914 27.6071 64.6421 31.3578C68.3929 35.1085 70.5 40.1956 70.5 45.4999Z" fill="#C6B9B9"/>
</g>
</svg>
