<svg width="22" height="23" viewBox="0 0 22 23" fill="none" xmlns="http://www.w3.org/2000/svg">
<mask id="path-1-inside-1_22_1263" fill="white">
<path d="M11.6804 9.41645C11.1264 9.41645 10.5951 9.63652 10.2033 10.0282C9.81159 10.42 9.59151 10.9512 9.59151 11.5052V14.9865C9.59151 15.1712 9.51815 15.3483 9.38756 15.4788C9.25698 15.6094 9.07987 15.6828 8.8952 15.6828C8.71053 15.6828 8.53342 15.6094 8.40284 15.4788C8.27226 15.3483 8.1989 15.1712 8.1989 14.9865V11.5052C8.1989 10.5819 8.5657 9.69645 9.21861 9.04358C9.87152 8.39071 10.7571 8.02394 11.6804 8.02394H12.7848L11.8851 7.12298C11.7583 6.99166 11.6881 6.81579 11.6897 6.63323C11.6913 6.45067 11.7645 6.27604 11.8936 6.14695C12.0227 6.01786 12.1974 5.94464 12.3799 5.94305C12.5625 5.94146 12.7384 6.01164 12.8697 6.13847L14.9586 8.22724C15.0891 8.35781 15.1625 8.53487 15.1625 8.7195C15.1625 8.90412 15.0891 9.08119 14.9586 9.21175L12.8697 11.3005C12.8055 11.367 12.7286 11.4201 12.6437 11.4566C12.5587 11.493 12.4674 11.5123 12.3749 11.5131C12.2825 11.5139 12.1908 11.4962 12.1052 11.4612C12.0196 11.4262 11.9419 11.3745 11.8765 11.3092C11.8111 11.2438 11.7594 11.166 11.7244 11.0805C11.6894 10.9949 11.6718 10.9032 11.6726 10.8108C11.6734 10.7183 11.6926 10.627 11.7291 10.542C11.7656 10.4571 11.8186 10.3802 11.8851 10.316L12.7848 9.41645H11.6804ZM8.52199 1.84117C8.84529 1.5178 9.22913 1.26129 9.65158 1.08628C10.074 0.911274 10.5268 0.821198 10.9841 0.821198C11.4414 0.821198 11.8942 0.911274 12.3166 1.08628C12.7391 1.26129 13.1229 1.5178 13.4462 1.84117L20.6474 9.04326C20.9708 9.36654 21.2273 9.75035 21.4023 10.1728C21.5774 10.5952 21.6674 11.048 21.6674 11.5052C21.6674 11.9625 21.5774 12.4152 21.4023 12.8377C21.2273 13.2601 20.9708 13.6439 20.6474 13.9672L13.4462 21.1679C13.1229 21.4913 12.7391 21.7478 12.3166 21.9228C11.8942 22.0978 11.4414 22.1879 10.9841 22.1879C10.5268 22.1879 10.074 22.0978 9.65158 21.9228C9.22913 21.7478 8.84529 21.4913 8.52199 21.1679L1.32082 13.9672C0.997432 13.6439 0.740903 13.2601 0.565884 12.8377C0.390864 12.4152 0.300781 11.9625 0.300781 11.5052C0.300781 11.048 0.390864 10.5952 0.565884 10.1728C0.740903 9.75035 0.997432 9.36654 1.32082 9.04326L8.52199 1.84117ZM12.4617 2.82568C12.0699 2.43409 11.5387 2.21411 10.9848 2.21411C10.4309 2.21411 9.89968 2.43409 9.50795 2.82568L2.30539 10.0292C1.91378 10.4209 1.69379 10.9521 1.69379 11.5059C1.69379 12.0598 1.91378 12.591 2.30539 12.9827L9.50795 20.1848C9.89962 20.5759 10.4305 20.7956 10.9841 20.7956C11.5377 20.7956 12.0686 20.5759 12.4603 20.1848L19.6628 12.9827C20.0544 12.591 20.2744 12.0598 20.2744 11.5059C20.2744 10.9521 20.0544 10.4209 19.6628 10.0292L12.4617 2.82568Z"/>
</mask>
<path d="M11.6804 9.41645C11.1264 9.41645 10.5951 9.63652 10.2033 10.0282C9.81159 10.42 9.59151 10.9512 9.59151 11.5052V14.9865C9.59151 15.1712 9.51815 15.3483 9.38756 15.4788C9.25698 15.6094 9.07987 15.6828 8.8952 15.6828C8.71053 15.6828 8.53342 15.6094 8.40284 15.4788C8.27226 15.3483 8.1989 15.1712 8.1989 14.9865V11.5052C8.1989 10.5819 8.5657 9.69645 9.21861 9.04358C9.87152 8.39071 10.7571 8.02394 11.6804 8.02394H12.7848L11.8851 7.12298C11.7583 6.99166 11.6881 6.81579 11.6897 6.63323C11.6913 6.45067 11.7645 6.27604 11.8936 6.14695C12.0227 6.01786 12.1974 5.94464 12.3799 5.94305C12.5625 5.94146 12.7384 6.01164 12.8697 6.13847L14.9586 8.22724C15.0891 8.35781 15.1625 8.53487 15.1625 8.7195C15.1625 8.90412 15.0891 9.08119 14.9586 9.21175L12.8697 11.3005C12.8055 11.367 12.7286 11.4201 12.6437 11.4566C12.5587 11.493 12.4674 11.5123 12.3749 11.5131C12.2825 11.5139 12.1908 11.4962 12.1052 11.4612C12.0196 11.4262 11.9419 11.3745 11.8765 11.3092C11.8111 11.2438 11.7594 11.166 11.7244 11.0805C11.6894 10.9949 11.6718 10.9032 11.6726 10.8108C11.6734 10.7183 11.6926 10.627 11.7291 10.542C11.7656 10.4571 11.8186 10.3802 11.8851 10.316L12.7848 9.41645H11.6804ZM8.52199 1.84117C8.84529 1.5178 9.22913 1.26129 9.65158 1.08628C10.074 0.911274 10.5268 0.821198 10.9841 0.821198C11.4414 0.821198 11.8942 0.911274 12.3166 1.08628C12.7391 1.26129 13.1229 1.5178 13.4462 1.84117L20.6474 9.04326C20.9708 9.36654 21.2273 9.75035 21.4023 10.1728C21.5774 10.5952 21.6674 11.048 21.6674 11.5052C21.6674 11.9625 21.5774 12.4152 21.4023 12.8377C21.2273 13.2601 20.9708 13.6439 20.6474 13.9672L13.4462 21.1679C13.1229 21.4913 12.7391 21.7478 12.3166 21.9228C11.8942 22.0978 11.4414 22.1879 10.9841 22.1879C10.5268 22.1879 10.074 22.0978 9.65158 21.9228C9.22913 21.7478 8.84529 21.4913 8.52199 21.1679L1.32082 13.9672C0.997432 13.6439 0.740903 13.2601 0.565884 12.8377C0.390864 12.4152 0.300781 11.9625 0.300781 11.5052C0.300781 11.048 0.390864 10.5952 0.565884 10.1728C0.740903 9.75035 0.997432 9.36654 1.32082 9.04326L8.52199 1.84117ZM12.4617 2.82568C12.0699 2.43409 11.5387 2.21411 10.9848 2.21411C10.4309 2.21411 9.89968 2.43409 9.50795 2.82568L2.30539 10.0292C1.91378 10.4209 1.69379 10.9521 1.69379 11.5059C1.69379 12.0598 1.91378 12.591 2.30539 12.9827L9.50795 20.1848C9.89962 20.5759 10.4305 20.7956 10.9841 20.7956C11.5377 20.7956 12.0686 20.5759 12.4603 20.1848L19.6628 12.9827C20.0544 12.591 20.2744 12.0598 20.2744 11.5059C20.2744 10.9521 20.0544 10.4209 19.6628 10.0292L12.4617 2.82568Z" fill="white"/>
<path d="M11.6804 9.41645V5.14312V9.41645ZM9.59151 11.5052H5.31817H9.59151ZM12.7848 8.02394V12.2973H23.0907L15.8087 5.00447L12.7848 8.02394ZM11.8851 7.12298L8.81147 10.0918L8.83612 10.1173L8.86119 10.1424L11.8851 7.12298ZM12.8697 6.13847L15.8913 3.11667L15.865 3.09041L15.8383 3.06462L12.8697 6.13847ZM14.9586 8.22724L17.9807 5.2059L17.9802 5.20544L14.9586 8.22724ZM14.9586 9.21175L17.9802 12.2336L17.9807 12.2331L14.9586 9.21175ZM12.8697 11.3005L9.8481 8.27872L9.82184 8.30498L9.79604 8.33169L12.8697 11.3005ZM11.8851 10.316L14.8538 13.3899L14.8805 13.3641L14.9067 13.3378L11.8851 10.316ZM12.7848 9.41645L15.8064 12.4383L23.102 5.14312H12.7848V9.41645ZM8.52199 1.84117L11.5439 4.86268L11.544 4.86257L8.52199 1.84117ZM10.9841 0.821198V5.09453V0.821198ZM13.4462 1.84117L10.4242 4.86257L10.4243 4.86268L13.4462 1.84117ZM20.6474 9.04326L17.6255 12.0648L17.6262 12.0655L20.6474 9.04326ZM20.6474 13.9672L17.6262 10.945L17.6258 10.9454L20.6474 13.9672ZM13.4462 21.1679L10.4246 18.1461L10.4242 18.1465L13.4462 21.1679ZM8.52199 21.1679L11.544 18.1465L11.5436 18.1461L8.52199 21.1679ZM1.32082 13.9672L4.34242 10.9454L4.34202 10.945L1.32082 13.9672ZM0.300781 11.5052H4.57412H0.300781ZM1.32082 9.04326L4.34202 12.0655L4.34272 12.0648L1.32082 9.04326ZM12.4617 2.82568L15.4839 -0.195542L15.4828 -0.196582L12.4617 2.82568ZM10.9848 2.21411V-2.05922V2.21411ZM9.50795 2.82568L6.4868 -0.196582L6.48605 -0.195833L9.50795 2.82568ZM2.30539 10.0292L-0.716507 7.00765L-0.716671 7.00781L2.30539 10.0292ZM1.69379 11.5059H5.96712H1.69379ZM2.30539 12.9827L-0.716671 16.004L-0.716215 16.0045L2.30539 12.9827ZM9.50795 20.1848L6.48634 23.2066L6.48823 23.2085L9.50795 20.1848ZM10.9841 20.7956V16.5223V20.7956ZM12.4603 20.1848L15.48 23.2085L15.4819 23.2066L12.4603 20.1848ZM19.6628 12.9827L22.6844 16.0045L22.6849 16.004L19.6628 12.9827ZM20.2744 11.5059H16.0011H20.2744ZM19.6628 10.0292L16.6406 13.0504L16.6408 13.0505L19.6628 10.0292ZM11.6804 5.14312C9.99314 5.14312 8.3749 5.81334 7.18173 7.00644L13.2249 13.05C12.8153 13.4597 12.2597 13.6898 11.6804 13.6898V5.14312ZM7.18173 7.00644C5.98854 8.19954 5.31817 9.8178 5.31817 11.5052H13.8648C13.8648 12.0847 13.6346 12.6404 13.2249 13.05L7.18173 7.00644ZM5.31817 11.5052V14.9865H13.8648V11.5052H5.31817ZM5.31817 14.9865C5.31817 14.0377 5.6951 13.1279 6.36596 12.457L12.4092 18.5006C13.3412 17.5687 13.8648 16.3046 13.8648 14.9865H5.31817ZM6.36596 12.457C7.03681 11.7862 7.94662 11.4094 8.8952 11.4094V19.9561C10.2131 19.9561 11.4772 19.4326 12.4092 18.5006L6.36596 12.457ZM8.8952 11.4094C9.84379 11.4094 10.7536 11.7862 11.4244 12.457L5.38124 18.5006C6.31325 19.4326 7.57728 19.9561 8.8952 19.9561V11.4094ZM11.4244 12.457C12.0953 13.1279 12.4722 14.0377 12.4722 14.9865H3.92557C3.92557 16.3046 4.44921 17.5687 5.38124 18.5006L11.4244 12.457ZM12.4722 14.9865V11.5052H3.92557V14.9865H12.4722ZM12.4722 11.5052C12.4722 11.7154 12.3887 11.9169 12.2402 12.0654L6.19701 6.02178C4.74266 7.47603 3.92557 9.44848 3.92557 11.5052H12.4722ZM12.2402 12.0654C12.0917 12.2139 11.8903 12.2973 11.6804 12.2973V3.7506C9.62379 3.7506 7.65135 4.56754 6.19701 6.02178L12.2402 12.0654ZM11.6804 12.2973H12.7848V3.7506H11.6804V12.2973ZM15.8087 5.00447L14.9091 4.10352L8.86119 10.1424L9.76081 11.0434L15.8087 5.00447ZM14.9588 4.15414C15.6104 4.82877 15.971 5.73238 15.9629 6.67037L7.41652 6.5961C7.4052 7.89919 7.90617 9.15456 8.81147 10.0918L14.9588 4.15414ZM15.9629 6.67037C15.9547 7.60834 15.5785 8.50555 14.9152 9.16875L8.87201 3.12515C7.95056 4.04654 7.42785 5.29301 7.41652 6.5961L15.9629 6.67037ZM14.9152 9.16875C14.252 9.83195 13.3548 10.2081 12.4171 10.2162L12.3428 1.66988C11.0399 1.6812 9.79344 2.20378 8.87201 3.12515L14.9152 9.16875ZM12.4171 10.2162C11.4793 10.2244 10.5757 9.86389 9.90107 9.21233L15.8383 3.06462C14.901 2.1594 13.6457 1.65856 12.3428 1.66988L12.4171 10.2162ZM9.8481 9.16027L11.937 11.249L17.9802 5.20544L15.8913 3.11667L9.8481 9.16027ZM11.9366 11.2486C11.2659 10.5778 10.8891 9.6681 10.8891 8.7195H19.4358C19.4358 7.40165 18.9124 6.13782 17.9807 5.2059L11.9366 11.2486ZM10.8891 8.7195C10.8891 7.77091 11.2659 6.8612 11.9366 6.19041L17.9807 12.2331C18.9124 11.3012 19.4358 10.0373 19.4358 8.7195H10.8891ZM11.937 6.18995L9.8481 8.27872L15.8913 14.3223L17.9802 12.2336L11.937 6.18995ZM9.79604 8.33169C10.126 7.99006 10.5207 7.71757 10.9571 7.53012L14.3302 15.383C14.9365 15.1226 15.4849 14.744 15.9434 14.2694L9.79604 8.33169ZM10.9571 7.53012C11.3935 7.34267 11.8629 7.24401 12.3378 7.23989L12.412 15.7862C13.0718 15.7805 13.7239 15.6434 14.3302 15.383L10.9571 7.53012ZM12.3378 7.23989C12.8127 7.23576 13.2837 7.32625 13.7233 7.50609L10.4871 15.4164C11.0978 15.6662 11.7522 15.792 12.412 15.7862L12.3378 7.23989ZM13.7233 7.50609C14.1628 7.68591 14.5622 7.95149 14.8981 8.28735L8.85489 14.331C9.32154 14.7976 9.87641 15.1665 10.4871 15.4164L13.7233 7.50609ZM14.8981 8.28735C15.234 8.62322 15.4996 9.02261 15.6795 9.46222L7.76933 12.6987C8.01922 13.3095 8.38825 13.8643 8.85489 14.331L14.8981 8.28735ZM15.6795 9.46222C15.8594 9.90185 15.9499 10.3729 15.9458 10.8479L7.39941 10.7736C7.39368 11.4335 7.51943 12.088 7.76933 12.6987L15.6795 9.46222ZM15.9458 10.8479C15.9416 11.3229 15.8429 11.7923 15.6554 12.2288L7.80273 8.85527C7.54225 9.46162 7.40514 10.1138 7.39941 10.7736L15.9458 10.8479ZM15.6554 12.2288C15.468 12.6652 15.1954 13.0599 14.8538 13.3899L8.91649 7.24216C8.44183 7.70058 8.06321 8.24894 7.80273 8.85527L15.6554 12.2288ZM14.9067 13.3378L15.8064 12.4383L9.76315 6.39465L8.86352 7.29422L14.9067 13.3378ZM12.7848 5.14312H11.6804V13.6898H12.7848V5.14312ZM11.544 4.86257C11.4704 4.93613 11.3831 4.99446 11.2871 5.03426L8.01608 -2.86169C7.0751 -2.47188 6.22013 -1.90052 5.49998 -1.18024L11.544 4.86257ZM11.2871 5.03426C11.191 5.07405 11.0881 5.09453 10.9841 5.09453V-3.45214C9.9656 -3.45214 8.95705 -3.2515 8.01608 -2.86169L11.2871 5.03426ZM10.9841 5.09453C10.8802 5.09453 10.7772 5.07405 10.6811 5.03426L13.9521 -2.86169C13.0112 -3.2515 12.0026 -3.45214 10.9841 -3.45214V5.09453ZM10.6811 5.03426C10.5851 4.99446 10.4978 4.93613 10.4242 4.86257L16.4682 -1.18024C15.7481 -1.90052 14.8931 -2.47188 13.9521 -2.86169L10.6811 5.03426ZM10.4243 4.86268L17.6255 12.0648L23.6693 6.02175L16.4681 -1.18034L10.4243 4.86268ZM17.6262 12.0655C17.5526 11.9919 17.4943 11.9046 17.4544 11.8085L25.3502 8.5371C24.9604 7.5961 24.3889 6.74115 23.6686 6.02106L17.6262 12.0655ZM17.4544 11.8085C17.4146 11.7123 17.3941 11.6093 17.3941 11.5052H25.9408C25.9408 10.4867 25.7401 9.47808 25.3502 8.5371L17.4544 11.8085ZM17.3941 11.5052C17.3941 11.4012 17.4146 11.2981 17.4544 11.202L25.3502 14.4734C25.7401 13.5324 25.9408 12.5238 25.9408 11.5052H17.3941ZM17.4544 11.202C17.4943 11.1058 17.5526 11.0185 17.6262 10.945L23.6686 16.9894C24.3889 16.2693 24.9604 15.4143 25.3502 14.4734L17.4544 11.202ZM17.6258 10.9454L10.4246 18.1461L16.4678 24.1897L23.669 16.989L17.6258 10.9454ZM10.4242 18.1465C10.4978 18.0729 10.5851 18.0146 10.6811 17.9748L13.9521 25.8708C14.8931 25.4809 15.7481 24.9096 16.4682 24.1893L10.4242 18.1465ZM10.6811 17.9748C10.7772 17.935 10.8801 17.9145 10.9841 17.9145V26.4612C12.0026 26.4612 13.0112 26.2606 13.9521 25.8708L10.6811 17.9748ZM10.9841 17.9145C11.0881 17.9145 11.191 17.935 11.2871 17.9748L8.01608 25.8708C8.95705 26.2606 9.96559 26.4612 10.9841 26.4612V17.9145ZM11.2871 17.9748C11.3832 18.0146 11.4705 18.0729 11.544 18.1465L5.49998 24.1893C6.22012 24.9096 7.0751 25.4809 8.01608 25.8708L11.2871 17.9748ZM11.5436 18.1461L4.34242 10.9454L-1.70079 16.989L5.50038 24.1897L11.5436 18.1461ZM4.34202 10.945C4.41559 11.0185 4.47396 11.1059 4.51378 11.202L-3.38202 14.4734C-2.99215 15.4143 -2.42072 16.2693 -1.70039 16.9894L4.34202 10.945ZM4.51378 11.202C4.55361 11.2981 4.57412 11.4012 4.57412 11.5052H-3.97255C-3.97255 12.5238 -3.77188 13.5324 -3.38202 14.4734L4.51378 11.202ZM4.57412 11.5052C4.57412 11.6093 4.55361 11.7123 4.51378 11.8085L-3.38202 8.5371C-3.77188 9.47809 -3.97255 10.4867 -3.97255 11.5052H4.57412ZM4.51378 11.8085C4.47396 11.9046 4.41559 11.9919 4.34202 12.0655L-1.70039 6.02106C-2.42072 6.74115 -2.99215 7.59611 -3.38202 8.5371L4.51378 11.8085ZM4.34272 12.0648L11.5439 4.86268L5.50009 -1.18034L-1.70108 6.02175L4.34272 12.0648ZM15.4828 -0.196582C14.2897 -1.38926 12.6718 -2.05922 10.9848 -2.05922V6.48745C10.4057 6.48745 9.85018 6.25745 9.44052 5.84793L15.4828 -0.196582ZM10.9848 -2.05922C9.29786 -2.05922 7.67992 -1.38926 6.4868 -0.196582L12.5291 5.84793C12.1194 6.25745 11.5639 6.48745 10.9848 6.48745V-2.05922ZM6.48605 -0.195833L-0.716507 7.00765L5.32729 13.0507L12.5298 5.84719L6.48605 -0.195833ZM-0.716671 7.00781C-1.90944 8.20086 -2.57955 9.81883 -2.57955 11.5059H5.96712C5.96712 12.0853 5.737 12.6409 5.32745 13.0505L-0.716671 7.00781ZM-2.57955 11.5059C-2.57955 13.193 -1.90944 14.811 -0.716671 16.004L5.32745 9.96134C5.737 10.371 5.96712 10.9266 5.96712 11.5059H-2.57955ZM-0.716215 16.0045L6.48634 23.2066L12.5296 17.163L5.327 9.96088L-0.716215 16.0045ZM6.48823 23.2085C7.68117 24.3998 9.2982 25.069 10.9841 25.069V16.5223C11.5629 16.5223 12.1181 16.752 12.5277 17.1611L6.48823 23.2085ZM10.9841 25.069C12.67 25.069 14.2871 24.3998 15.48 23.2085L9.44055 17.1611C9.85015 16.752 10.4053 16.5223 10.9841 16.5223V25.069ZM15.4819 23.2066L22.6844 16.0045L16.6412 9.96088L9.43867 17.163L15.4819 23.2066ZM22.6849 16.004C23.8777 14.811 24.5478 13.193 24.5478 11.5059H16.0011C16.0011 10.9266 16.2312 10.371 16.6408 9.96134L22.6849 16.004ZM24.5478 11.5059C24.5478 9.81884 23.8777 8.20087 22.6849 7.00781L16.6408 13.0505C16.2312 12.6409 16.0011 12.0853 16.0011 11.5059H24.5478ZM22.685 7.00794L15.4839 -0.195542L9.43948 5.84689L16.6406 13.0504L22.685 7.00794Z" fill="white" mask="url(#path-1-inside-1_22_1263)"/>
</svg>
