<svg width="109" height="97" viewBox="0 0 109 97" fill="none" xmlns="http://www.w3.org/2000/svg">
<path opacity="0.4" d="M54.5 96.9998C53.8111 97.0067 53.1325 96.8325 52.5319 96.4946C50.362 95.2821 0 66.6368 0 30.3124C0 23.9504 1.99946 17.7496 5.71517 12.5884C9.43087 7.42728 14.6744 3.56739 20.7031 1.55553C26.7318 -0.456322 33.2399 -0.518152 39.3056 1.37881C45.3713 3.27576 50.6871 7.03534 54.5 12.125C58.3129 7.03534 63.6286 3.27576 69.6944 1.37881C75.7601 -0.518152 82.2682 -0.456322 88.2969 1.55553C94.3256 3.56739 99.5691 7.42728 103.285 12.5884C107.001 17.7496 109 23.9504 109 30.3124C109 45.7718 100.068 61.6353 82.4565 77.4988C74.4593 84.6964 65.7517 91.0611 56.4681 96.4946C55.8675 96.8325 55.1889 97.0067 54.5 96.9998ZM30.2778 8.08332C24.389 8.08332 18.7414 10.4253 14.5774 14.5941C10.4134 18.7628 8.07407 24.4169 8.07407 30.3124C8.07407 58.1999 45.4167 82.7024 54.5 88.2597C63.5833 82.7024 100.926 58.1999 100.926 30.3124C100.931 25.1736 99.1567 20.1919 95.9061 16.2148C92.6555 12.2378 88.1289 9.5111 83.0965 8.49871C78.0642 7.48632 72.8369 8.25075 68.304 10.662C63.7712 13.0732 60.2128 16.9822 58.2343 21.7239C57.9301 22.4652 57.4127 23.0992 56.7478 23.5454C56.0829 23.9916 55.3005 24.2299 54.5 24.2299C53.6995 24.2299 52.9171 23.9916 52.2522 23.5454C51.5873 23.0992 51.0699 22.4652 50.7657 21.7239C49.0854 17.6735 46.2408 14.2143 42.5929 11.7856C38.9451 9.35695 34.6586 8.0683 30.2778 8.08332Z" fill="#1B1B1B"/>
</svg>
