<svg width="20" height="17" viewBox="0 0 20 17" fill="none" xmlns="http://www.w3.org/2000/svg">
<path d="M18.2325 3.52387H6.79604M4.71669 3.52387H1.59766M18.2325 13.9206H6.79604M4.71669 13.9206H1.59766M13.0341 8.72226H1.59766M18.2325 8.72226H15.1135M5.75636 1.44452C6.0321 1.44452 6.29655 1.55406 6.49153 1.74903C6.6865 1.94401 6.79604 2.20846 6.79604 2.4842V4.56355C6.79604 4.83929 6.6865 5.10374 6.49153 5.29871C6.29655 5.49369 6.0321 5.60323 5.75636 5.60323C5.48063 5.60323 5.21618 5.49369 5.0212 5.29871C4.82622 5.10374 4.71669 4.83929 4.71669 4.56355V2.4842C4.71669 2.20846 4.82622 1.94401 5.0212 1.74903C5.21618 1.55406 5.48063 1.44452 5.75636 1.44452ZM5.75636 11.8413C6.0321 11.8413 6.29655 11.9508 6.49153 12.1458C6.6865 12.3408 6.79604 12.6052 6.79604 12.881V14.9603C6.79604 15.2361 6.6865 15.5005 6.49153 15.6955C6.29655 15.8905 6.0321 16 5.75636 16C5.48063 16 5.21618 15.8905 5.0212 15.6955C4.82622 15.5005 4.71669 15.2361 4.71669 14.9603V12.881C4.71669 12.6052 4.82622 12.3408 5.0212 12.1458C5.21618 11.9508 5.48063 11.8413 5.75636 11.8413ZM14.0738 6.64291C14.3495 6.64291 14.614 6.75244 14.8089 6.94742C15.0039 7.1424 15.1135 7.40684 15.1135 7.68258V9.76194C15.1135 10.0377 15.0039 10.3021 14.8089 10.4971C14.614 10.6921 14.3495 10.8016 14.0738 10.8016C13.798 10.8016 13.5336 10.6921 13.3386 10.4971C13.1436 10.3021 13.0341 10.0377 13.0341 9.76194V7.68258C13.0341 7.40684 13.1436 7.1424 13.3386 6.94742C13.5336 6.75244 13.798 6.64291 14.0738 6.64291Z" stroke="#384AAD" stroke-width="1.55952" stroke-linecap="round" stroke-linejoin="round"/>
</svg>
