<svg width="137" height="51" viewBox="0 0 137 51" fill="none" xmlns="http://www.w3.org/2000/svg">
<path d="M61.5736 42.3395C59.3949 42.3395 57.4708 41.9151 55.8014 41.0663C54.1603 40.2174 52.8728 39.029 51.9391 37.501C51.0336 35.9448 50.5809 34.1622 50.5809 32.1532V12.7993C50.5809 12.6578 50.6233 12.5446 50.7082 12.4597C50.8214 12.3465 50.9487 12.2899 51.0902 12.2899H56.056C56.1975 12.2899 56.3107 12.3465 56.3956 12.4597C56.5088 12.5446 56.5654 12.6578 56.5654 12.7993V32.1957C56.5654 33.6953 57.0181 34.912 57.9235 35.8458C58.8573 36.7512 60.074 37.2039 61.5736 37.2039C63.0733 37.2039 64.2758 36.7512 65.1813 35.8458C66.115 34.912 66.5819 33.6953 66.5819 32.1957V12.7993C66.5819 12.6578 66.6243 12.5446 66.7092 12.4597C66.8224 12.3465 66.9497 12.2899 67.0912 12.2899H72.057C72.1985 12.2899 72.3117 12.3465 72.3966 12.4597C72.5098 12.5446 72.5663 12.6578 72.5663 12.7993V32.1532C72.5663 34.1622 72.0995 35.9448 71.1657 37.501C70.2603 39.029 68.9728 40.2174 67.3034 41.0663C65.6623 41.9151 63.7524 42.3395 61.5736 42.3395Z" fill="#141E33"/>
<path d="M110.803 16.9162C110.803 17.0577 110.747 17.185 110.634 17.2982C110.549 17.3831 110.436 17.4255 110.294 17.4255H96.4153C96.2738 17.4255 96.2031 17.4963 96.2031 17.6378V24.2164C96.2031 24.3579 96.2738 24.4286 96.4153 24.4286H105.541C105.682 24.4286 105.795 24.4852 105.88 24.5984C105.993 24.6833 106.05 24.7965 106.05 24.9379V29.0549C106.05 29.1964 105.993 29.3237 105.88 29.4369C105.795 29.5218 105.682 29.5642 105.541 29.5642H96.4153C96.2738 29.5642 96.2031 29.635 96.2031 29.7764V41.4907C96.2031 41.6322 96.1465 41.7595 96.0333 41.8727C95.9484 41.9576 95.8352 42 95.6938 42H90.7279C90.5865 42 90.4591 41.9576 90.346 41.8727C90.2611 41.7595 90.2186 41.6322 90.2186 41.4907V12.7993C90.2186 12.6578 90.2611 12.5446 90.346 12.4597C90.4591 12.3465 90.5865 12.2899 90.7279 12.2899H110.294C110.436 12.2899 110.549 12.3465 110.634 12.4597C110.747 12.5446 110.803 12.6578 110.803 12.7993V16.9162Z" fill="#01F4FF"/>
<path d="M127.211 42C127.069 42 126.942 41.9576 126.829 41.8727C126.744 41.7595 126.701 41.6322 126.701 41.4907V12.7993C126.701 12.6578 126.744 12.5446 126.829 12.4597C126.942 12.3465 127.069 12.2899 127.211 12.2899H132.176C132.318 12.2899 132.431 12.3465 132.516 12.4597C132.629 12.5446 132.686 12.6578 132.686 12.7993V41.4907C132.686 41.6322 132.629 41.7595 132.516 41.8727C132.431 41.9576 132.318 42 132.176 42H127.211Z" fill="white"/>
<mask id="mask0_562_2168" style="mask-type:luminance" maskUnits="userSpaceOnUse" x="0" y="0" width="39" height="47">
<path d="M38.4097 0H0V46.3618H38.4097V0Z" fill="white"/>
</mask>
<g mask="url(#mask0_562_2168)">
<path d="M32.7818 40.7377C29.1802 44.3388 24.2957 46.3619 19.2026 46.3619C14.1095 46.3619 9.22493 44.3388 5.62334 40.7377C5.43705 40.5514 5.25883 40.3651 5.07999 40.1732C4.1287 39.1407 3.29214 38.0081 2.58496 36.7952C2.86502 36.8865 3.14383 36.974 3.42575 37.0548C3.43251 37.0578 3.43959 37.0601 3.44686 37.0616H3.45431C3.75175 37.1491 4.04609 37.233 4.34043 37.31C4.41432 37.328 4.48449 37.3491 4.55466 37.3721C4.83471 37.4422 5.11353 37.5124 5.39917 37.572C5.47728 37.5953 5.55669 37.6139 5.637 37.6279C5.85123 37.6807 6.07167 37.726 6.28902 37.7682C6.43991 37.7999 6.5995 37.8303 6.7448 37.8595C6.96897 37.9011 7.18941 37.9403 7.41358 37.975C7.56137 38.003 7.70109 38.0241 7.85198 38.0415C8.04138 38.0769 8.23387 38.1036 8.42699 38.1259C8.59465 38.1539 8.76293 38.175 8.93494 38.1924C9.16967 38.224 9.40439 38.2483 9.64595 38.2656C9.74406 38.2799 9.8459 38.2905 9.95084 38.2973C10.2067 38.3221 10.4625 38.3395 10.7221 38.3532C10.8587 38.3637 10.9953 38.3743 11.1387 38.378C11.2822 38.3818 11.4368 38.3954 11.5877 38.3991C11.8678 38.4128 12.1515 38.4165 12.4359 38.4203C12.4708 38.4234 12.506 38.4234 12.5409 38.4203C12.8141 38.4271 13.0911 38.4203 13.3643 38.4165C13.5506 38.4203 13.7325 38.4128 13.9107 38.4022C14.1144 38.4022 14.3137 38.3923 14.5137 38.3818C14.6292 38.378 14.7416 38.3712 14.8502 38.3606C15.1166 38.3464 15.383 38.3252 15.6488 38.3048C15.7854 38.2942 15.9258 38.2799 16.0624 38.2625C16.2586 38.2483 16.4517 38.2309 16.6411 38.2004C16.8274 38.1831 17.0137 38.1582 17.1944 38.1303C17.3589 38.1129 17.5241 38.088 17.6818 38.0638C17.8917 38.0359 18.0985 38.0017 18.3028 37.9657C18.5071 37.9297 18.7232 37.8955 18.9337 37.8533C19.0305 37.8401 19.1265 37.8214 19.2212 37.7974C19.5155 37.7409 19.8099 37.6782 20.1005 37.6111C20.4652 37.5341 20.8262 37.4466 21.1835 37.3485C21.3412 37.3094 21.4939 37.2677 21.6492 37.2243C22.9053 36.8772 24.1389 36.4535 25.3433 35.9557C25.5147 35.8892 25.683 35.819 25.8512 35.742C26.0375 35.6681 26.2188 35.5843 26.4014 35.4999C26.5523 35.4334 26.7063 35.3633 26.8572 35.29C27.0249 35.213 27.1931 35.1285 27.3583 35.0484C27.9606 34.7535 28.553 34.4417 29.1349 34.1052C29.2821 34.0214 29.4255 33.9406 29.5696 33.8531C29.6646 33.8003 29.7521 33.7481 29.8434 33.6916L30.2849 33.4184C30.8841 33.0458 31.4691 32.6478 32.0472 32.2305L32.4366 31.9467L32.6117 31.8138C32.7657 31.7016 32.9164 31.5859 33.0637 31.4667C33.2879 31.2916 33.5121 31.1165 33.7294 30.9339C33.7915 30.8886 33.8449 30.8395 33.9014 30.7905C34.0517 30.6663 34.2026 30.5384 34.3497 30.4117C34.4969 30.285 34.6478 30.149 34.795 30.0161C34.8999 29.9249 35.0018 29.8298 35.1055 29.7324C35.442 29.4239 35.7713 29.1085 36.0934 28.786C36.2586 28.6208 36.4194 28.46 36.574 28.2892C36.6579 28.2054 36.7386 28.1247 36.8193 28.0371C37.0994 27.7353 37.3726 27.4342 37.639 27.1262L37.6495 27.1156C37.716 27.0417 37.7831 26.9684 37.8458 26.8908C38.0246 26.684 38.196 26.4773 38.3717 26.2699C38.3778 26.264 38.3825 26.2568 38.3854 26.2487C38.4277 27.1509 38.407 28.055 38.3233 28.9543V28.9754C38.3233 28.9791 38.322 28.9826 38.3196 28.9853C37.901 33.4288 35.9421 37.5862 32.7818 40.7377Z" fill="url(#paint0_linear_562_2168)"/>
<path d="M36.097 28.7879C31.907 32.981 26.6613 35.9633 20.9151 37.4194C15.169 38.8754 9.13605 38.751 3.45482 37.0591C3.44483 37.0598 3.43488 37.0574 3.42625 37.0523H3.41942C3.13937 36.9679 2.86055 36.8803 2.58547 36.7928C1.74329 35.3476 1.09739 33.7966 0.664827 32.1809C0.350991 31.0133 0.147048 29.819 0.0556641 28.6134C0.307775 28.6066 0.55678 28.596 0.808891 28.5818H0.815721C0.821384 28.58 0.827451 28.58 0.833108 28.5818H0.836834C8.93306 28.1554 16.5835 24.7415 22.3079 19.0003C24.778 16.5313 26.8417 13.6868 28.4225 10.5726V10.5688C28.4293 10.562 28.4331 10.5515 28.4399 10.5446L28.4331 10.544C28.4368 10.5363 28.4416 10.5292 28.4473 10.5229C28.5908 10.2391 28.7311 9.9516 28.8646 9.66409L32.7823 13.5824C36.1675 16.9581 38.1675 21.4781 38.389 26.2538C38.1505 26.5481 37.9052 26.8356 37.6531 27.1231C37.1588 27.6907 36.6403 28.2446 36.097 28.7879Z" fill="url(#paint1_linear_562_2168)"/>
<path d="M22.3075 19.0002C22.0727 19.235 21.8343 19.466 21.5958 19.6908C21.4418 19.8379 21.2853 19.9776 21.1301 20.1217C20.4992 20.6959 19.8474 21.2425 19.1747 21.7617C19.0027 21.8983 18.8313 22.0281 18.6556 22.1541C18.4457 22.3156 18.2321 22.4646 18.0147 22.6205C17.8111 22.7676 17.608 22.9074 17.3981 23.0477C17.3484 23.0825 17.2963 23.1141 17.2472 23.1495C17.0752 23.265 16.8964 23.3805 16.7213 23.4929C15.8099 24.075 14.8695 24.6106 13.9039 25.0975C13.7146 25.1956 13.5258 25.2869 13.3395 25.3744C13.3185 25.3874 13.2962 25.398 13.273 25.4061C13.0806 25.5005 12.8949 25.5881 12.7018 25.6756C12.6459 25.7042 12.5832 25.7321 12.5198 25.7601C12.313 25.8544 12.1063 25.942 11.8989 26.0302C11.6641 26.1314 11.4257 26.2295 11.1872 26.3208C10.9488 26.4121 10.6936 26.5133 10.4421 26.6083C10.2111 26.6921 9.97635 26.7729 9.74846 26.8567C9.50007 26.9405 9.261 27.0212 9.01945 27.0945C8.77789 27.1678 8.53199 27.2454 8.28671 27.3156C8.04143 27.3857 7.79615 27.4559 7.55459 27.5224C7.31304 27.5888 7.05782 27.6521 6.80944 27.7086C6.56105 27.7652 6.31577 27.8241 6.06426 27.8769C5.56749 27.985 5.07072 28.0831 4.57395 28.1675C4.07718 28.252 3.57171 28.3215 3.0706 28.388C2.32544 28.4755 1.58028 28.5426 0.827675 28.5842H0.823949C0.817119 28.5842 0.817119 28.5842 0.813393 28.5842L0.811872 28.5854L0.809978 28.5859L0.808078 28.5854L0.806562 28.5842C0.55445 28.5985 0.298613 28.609 0.046502 28.6159C-0.0315288 27.5892 -0.0269607 26.5581 0.0601629 25.5322C0.0634662 25.522 0.0647324 25.5112 0.0638891 25.5005C0.446654 20.9952 2.41326 16.771 5.61468 13.578L19.2026 0L28.8636 9.66095C28.7301 9.94846 28.5935 10.2322 28.4463 10.5129V10.5197C28.4406 10.5261 28.4357 10.5332 28.432 10.5409L28.4357 10.5446L28.4252 10.5545C28.4231 10.5563 28.4213 10.5584 28.4202 10.5609C28.419 10.5633 28.4184 10.5661 28.4184 10.5688V10.5725C28.4083 10.5889 28.4002 10.6064 28.3941 10.6247L28.2998 10.8035C28.0497 11.2928 27.7822 11.7776 27.4975 12.2578C27.3112 12.5838 27.1118 12.9098 26.9088 13.2321C26.5412 13.8171 26.15 14.3977 25.7352 14.9739C25.6333 15.1105 25.5389 15.2471 25.4334 15.38C25.185 15.7129 24.9323 16.0426 24.6696 16.3686C24.5752 16.4928 24.4734 16.617 24.3715 16.7294C24.1896 16.9536 23.999 17.1746 23.8077 17.392C23.3283 17.9421 22.8282 18.4782 22.3075 19.0002Z" fill="url(#paint2_linear_562_2168)"/>
<g style="mix-blend-mode:multiply" opacity="0.15">
<path d="M0.664827 32.1834C0.350991 31.0159 0.147048 29.8215 0.0556641 28.616C8.42977 28.3743 16.3931 24.9332 22.3079 19.0003C25.0192 16.2917 27.2378 13.1314 28.864 9.66104C28.864 9.66104 25.4406 25.2938 0.664827 32.1834Z" fill="#1B1B1B"/>
</g>
<g style="mix-blend-mode:multiply" opacity="0.15">
<path d="M5.07999 40.1733C4.12871 39.1407 3.29215 38.0081 2.58496 36.7952C8.36541 38.6877 14.5573 38.941 20.473 37.527C26.3888 36.1129 31.7967 33.0868 36.0965 28.7848C36.9029 27.9783 37.6679 27.1315 38.3885 26.2475C38.3885 26.2475 28.8319 43.0887 5.07999 40.1733Z" fill="#1B1B1B"/>
</g>
<g style="mix-blend-mode:multiply" opacity="0.25">
<path d="M34.5659 30.5435C34.2579 30.81 33.9356 31.0903 33.599 31.3842C33.2587 31.6686 32.9228 32.0052 32.5297 32.2784C32.1447 32.5653 31.7417 32.8634 31.3313 33.1683C30.9283 33.4874 30.4694 33.7427 30.021 34.0376C29.5653 34.3465 29.0926 34.6296 28.6052 34.8859C28.1085 35.1491 27.6117 35.4149 27.1019 35.6888C26.5797 35.9303 26.0462 36.1613 25.5041 36.3967C24.9714 36.6488 24.4038 36.8239 23.8462 37.0307L23.0054 37.3318C22.7216 37.4268 22.4304 37.5001 22.1435 37.5846C21.5685 37.7317 20.9972 37.9242 20.4122 38.0329C19.8304 38.1521 19.2486 38.2714 18.6704 38.3869C17.5354 38.571 16.3914 38.6953 15.2433 38.7594C14.171 38.8217 13.0962 38.83 12.023 38.7843C11.5114 38.742 11.0133 38.6998 10.5327 38.6601C10.2943 38.639 10.0595 38.6147 9.82854 38.5936C9.60064 38.562 9.37275 38.5235 9.15541 38.4887C8.71391 38.4185 8.29724 38.3515 7.89424 38.285C7.49123 38.2186 7.123 38.1099 6.76905 38.0366C6.0686 37.8609 5.45509 37.7317 4.9608 37.5597C4.03929 37.2691 3.49285 37.0797 3.42578 37.0555C3.43441 37.0605 3.44436 37.063 3.45435 37.0623C9.13592 38.7538 15.1691 38.8779 20.9155 37.4213C26.6617 35.9647 31.9074 32.9817 36.0972 28.788C36.6405 28.2447 37.159 27.6908 37.6533 27.1201C37.5763 27.2176 37.2186 27.6597 36.6374 28.3533C36.4617 28.5495 36.3008 28.7669 36.0661 29.0016L35.3651 29.7238L34.5659 30.5435Z" fill="#1B1B1B"/>
</g>
<g style="mix-blend-mode:multiply" opacity="0.25">
<path d="M0.833793 28.5811H0.837519C0.826963 28.5849 0.823237 28.5811 0.816406 28.5811C0.822063 28.5794 0.82813 28.5794 0.833793 28.5811Z" fill="#1B1B1B"/>
</g>
<g style="mix-blend-mode:multiply" opacity="0.25">
<path d="M28.4371 10.5439C28.4315 10.5528 28.4268 10.5622 28.4229 10.5719V10.5682C28.4229 10.5576 28.4334 10.5508 28.4365 10.5402C28.4402 10.5326 28.4451 10.5255 28.4508 10.5191C28.4508 10.5191 28.444 10.5303 28.4371 10.5439Z" fill="#1B1B1B"/>
</g>
<g style="mix-blend-mode:multiply" opacity="0.25">
<path d="M22.3005 19.61C21.559 20.364 20.7764 21.0765 19.9564 21.7442C19.1131 22.4349 18.2347 23.0815 17.3248 23.6816C16.8621 23.9834 16.3995 24.2778 15.9233 24.5442L15.2154 24.9503C14.9732 25.0745 14.7347 25.1987 14.4932 25.3229C14.2516 25.447 14.0132 25.5712 13.7747 25.6911C13.5332 25.7997 13.2879 25.9121 13.0494 26.0171C12.5657 26.2413 12.082 26.4306 11.602 26.6163C11.1257 26.8125 10.6488 26.974 10.1793 27.128C9.70989 27.282 9.24354 27.4186 8.79148 27.5416C8.34315 27.6744 7.90164 27.7866 7.46697 27.8781C7.03602 27.9725 6.61873 28.0644 6.21573 28.1333C5.81269 28.2023 5.4277 28.2774 5.05947 28.3227C4.69124 28.3681 4.3379 28.4072 4.00817 28.4419C3.34622 28.5084 2.76625 28.5332 2.29494 28.5717C1.46409 28.5891 0.948688 28.5854 0.836914 28.5854C8.93362 28.158 16.5841 24.7427 22.308 19.0002C24.7781 16.5312 26.8418 13.6867 28.4226 10.5725C28.3984 10.6346 28.3531 10.7333 28.2897 10.883C28.1916 11.1146 28.0414 11.458 27.8308 11.8821C27.2509 13.0644 26.5905 14.2056 25.8543 15.2974C25.3643 16.0311 24.8379 16.74 24.2771 17.4211C23.6611 18.1883 23.0011 18.9192 22.3005 19.61Z" fill="#1B1B1B"/>
</g>
<g style="mix-blend-mode:screen" opacity="0.4">
<path d="M36.0983 28.7879C31.9082 32.9809 26.6625 35.9633 20.9164 37.4193C15.1702 38.8754 9.13726 38.7509 3.45605 37.0591C3.59267 37.0833 4.14595 37.1889 5.01157 37.3696C5.50834 37.4938 6.13303 37.5658 6.83721 37.6676C7.54201 37.7918 8.34802 37.8465 9.21675 37.9235C9.43781 37.9409 9.66198 37.962 9.88615 37.9856C10.114 37.9893 10.345 37.9961 10.5804 37.9999C11.0529 38.0172 11.5404 38.0278 12.0415 38.0452C13.04 37.9999 14.095 38.0098 15.1811 37.8837C16.2709 37.8216 17.375 37.6105 18.507 37.446C19.0675 37.3267 19.6293 37.2065 20.1923 37.0852C20.7598 36.9728 21.31 36.7803 21.8689 36.6331C22.1496 36.5561 22.4333 36.4891 22.7066 36.3984L23.5269 36.1109C24.0696 35.9178 24.6235 35.7569 25.1457 35.5148C25.6679 35.2943 26.1902 35.0733 26.7087 34.8559C27.2098 34.6075 27.7072 34.3591 28.1946 34.1201C28.6914 33.8959 29.1404 33.5947 29.5999 33.3457C30.055 33.0793 30.5146 32.849 30.9207 32.5571C31.7515 31.9982 32.5575 31.4953 33.2369 30.9488C33.5877 30.6899 33.9243 30.4371 34.2428 30.1956C34.5533 29.936 34.8421 29.687 35.1122 29.456C35.3823 29.225 35.6412 29.004 35.8766 28.804C36.1039 28.6177 36.3038 28.3979 36.4932 28.2228C37.1446 27.5919 37.5582 27.2063 37.6494 27.1224C37.1601 27.6906 36.6416 28.2445 36.0983 28.7879Z" fill="white"/>
</g>
<g style="mix-blend-mode:screen" opacity="0.4">
<path d="M22.3086 19.0003C16.5845 24.7424 8.93409 28.1573 0.837519 28.5843C0.826963 28.588 0.823237 28.5843 0.816406 28.5843C0.822063 28.5825 0.82813 28.5825 0.833793 28.5843C0.949292 28.5669 1.46159 28.4893 2.28499 28.3812C2.7476 28.2968 3.31144 28.216 3.95289 28.0794C4.59435 27.9428 5.31901 27.7851 6.09398 27.5783C6.48644 27.487 6.88572 27.3684 7.29928 27.2417C7.71284 27.1151 8.14379 26.9934 8.57846 26.8387C9.01624 26.6953 9.46148 26.5444 9.91043 26.3625C10.3594 26.1805 10.8214 26.0191 11.2734 25.8123C11.7361 25.6161 12.2018 25.4161 12.6613 25.1814C13.1239 24.9641 13.5927 24.7293 14.0485 24.4803C14.2839 24.3561 14.5149 24.2319 14.7496 24.1077L15.4327 23.7047C15.8916 23.4421 16.3368 23.1515 16.7783 22.8571C17.6686 22.2818 18.5293 21.662 19.3572 20.9998C20.1737 20.3441 20.9654 19.6784 21.6914 18.9879C23.0265 17.7396 24.2657 16.3924 25.3985 14.9578C26.2085 13.9419 26.9632 12.8831 27.6594 11.786C28.073 11.1414 28.3357 10.7105 28.4201 10.5701C28.4201 10.5596 28.4307 10.5527 28.4338 10.5422C28.4375 10.5345 28.4423 10.5274 28.4481 10.5211C28.4481 10.5211 28.4443 10.5316 28.4375 10.5459C28.4319 10.5548 28.4271 10.5641 28.4232 10.5738C26.8423 13.6877 24.7785 16.5317 22.3086 19.0003Z" fill="white"/>
</g>
<g style="mix-blend-mode:multiply" opacity="0.25">
<path d="M32.7825 40.7377C29.1809 44.3389 24.2964 46.3619 19.2032 46.3619C14.1102 46.3619 9.22565 44.3389 5.62402 40.7377C5.62402 40.7377 5.75381 40.8464 5.9966 41.0482C6.23813 41.2618 6.61319 41.5388 7.08264 41.8965C7.56265 42.243 8.15877 42.6416 8.85922 43.0632C9.65157 43.5157 10.4695 43.9217 11.3089 44.2791C12.3022 44.6888 13.3262 45.0193 14.3715 45.2677C15.5327 45.5342 16.7146 45.7005 17.9042 45.7644C19.1731 45.8278 20.445 45.7692 21.7026 45.5893C22.9993 45.4114 24.273 45.0941 25.5017 44.643C26.7358 44.203 27.9208 43.6357 29.0374 42.9502C30.1193 42.2855 31.135 41.5188 32.0708 40.6607C32.9478 39.8517 33.7523 38.9676 34.4752 38.0185C35.1219 37.1623 35.6983 36.2552 36.199 35.3062C36.6243 34.4972 36.9966 33.6615 37.3136 32.8043C37.5869 32.0331 37.7967 31.3463 37.9408 30.775C38.0849 30.2037 38.1861 29.7448 38.2389 29.4331C38.2805 29.1946 38.3084 29.0475 38.3227 28.9841C37.9039 33.4284 35.944 37.5863 32.7825 40.7377Z" fill="#1B1B1B"/>
</g>
<g style="mix-blend-mode:screen" opacity="0.4">
<path d="M21.0885 2.49503L19.2206 0.717834L16.7256 3.29732C15.7829 4.27471 14.8155 5.23535 13.8592 6.20591C12.9029 7.17648 11.9423 8.13649 10.9748 9.08967C10.0074 10.0428 9.04983 11.0103 8.06622 11.9567L6.59827 13.3756L5.87979 14.0804C5.64134 14.3287 5.38922 14.5635 5.17499 14.8056C4.72261 15.2873 4.29742 15.7937 3.90139 16.3227C3.50212 16.8554 3.13388 17.4124 2.78366 17.9806C2.43637 18.5493 2.12045 19.1366 1.83731 19.7398C1.5467 20.3459 1.29397 20.9693 1.06297 21.6027C0.849358 22.2373 0.635125 22.8782 0.477401 23.5407C0.312846 24.1822 0.183063 24.8448 0.0712891 25.503C0.454054 20.9976 2.42066 16.7735 5.62209 13.5805L19.2032 0L27.9638 8.76056C26.3977 7.40437 24.8763 6.00969 23.3556 4.60817L21.0885 2.49503Z" fill="white"/>
</g>
</g>
<defs>
<linearGradient id="paint0_linear_562_2168" x1="-164.488" y1="-95.6166" x2="-168.293" y2="-68.9065" gradientUnits="userSpaceOnUse">
<stop stop-color="#3E6896"/>
<stop offset="0.247" stop-color="#355881"/>
<stop offset="0.75" stop-color="#1F324E"/>
<stop offset="1" stop-color="#131D32"/>
</linearGradient>
<linearGradient id="paint1_linear_562_2168" x1="-180.226" y1="-104.466" x2="-180.226" y2="-71.8206" gradientUnits="userSpaceOnUse">
<stop stop-color="#5F2C82"/>
<stop offset="0.04" stop-color="#5D3283"/>
<stop offset="0.35" stop-color="#54618E"/>
<stop offset="0.625" stop-color="#4E8396"/>
<stop offset="0.851" stop-color="#4A989B"/>
<stop offset="1" stop-color="#49A09D"/>
</linearGradient>
<linearGradient id="paint2_linear_562_2168" x1="-191.981" y1="-106.594" x2="-191.981" y2="-71.3965" gradientUnits="userSpaceOnUse">
<stop stop-color="#0098BA"/>
<stop offset="0.017" stop-color="#009BBC"/>
<stop offset="0.19" stop-color="#00BAD4"/>
<stop offset="0.371" stop-color="#00D3E7"/>
<stop offset="0.56" stop-color="#00E5F4"/>
<stop offset="0.762" stop-color="#00EFFC"/>
<stop offset="1" stop-color="#00F3FF"/>
</linearGradient>
</defs>
</svg>
