<svg width="17" height="18" viewBox="0 0 17 18" fill="none" xmlns="http://www.w3.org/2000/svg">
<path d="M16.8037 0.70628C16.708 0.611137 16.5871 0.545264 16.4552 0.516405C16.3233 0.487546 16.1859 0.496902 16.0591 0.543372L0.457656 6.20975C0.323106 6.26072 0.207267 6.35137 0.125523 6.46966C0.0437794 6.58795 0 6.72828 0 6.872C0 7.01573 0.0437794 7.15606 0.125523 7.27435C0.207267 7.39264 0.323106 7.48329 0.457656 7.53426L7.26555 10.2541L9.98871 17.0538C10.0399 17.1823 10.1276 17.293 10.241 17.3723C10.3544 17.4516 10.4886 17.496 10.627 17.5C10.7703 17.4971 10.9093 17.4508 11.0258 17.3674C11.1423 17.2839 11.2307 17.1672 11.2794 17.0325L16.9526 1.44999C17.0009 1.32468 17.0126 1.18823 16.9862 1.05655C16.9599 0.924873 16.8966 0.803395 16.8037 0.70628ZM10.627 14.8085L8.64841 9.85039L12.0453 6.45765L11.0454 5.45895L7.62013 8.88003L2.68441 6.87555L15.1159 2.39203L10.627 14.8085Z" fill="white"/>
</svg>
