<svg width="25" height="25" viewBox="0 0 25 25" fill="none" xmlns="http://www.w3.org/2000/svg">
<path d="M12.7202 15.9624C14.7263 15.9624 16.3526 14.3361 16.3526 12.3301C16.3526 10.324 14.7263 8.69772 12.7202 8.69772C10.7141 8.69772 9.08789 10.324 9.08789 12.3301C9.08789 14.3361 10.7141 15.9624 12.7202 15.9624Z" fill="white"/>
<path d="M15.0827 2.94558C14.4326 2.78112 13.9309 2.22482 13.9309 1.55427V1.43298C13.9309 0.764282 13.3888 0.222198 12.7201 0.222198C12.0514 0.222198 11.5093 0.764282 11.5093 1.43298V1.55427C11.5093 2.22482 11.0075 2.78112 10.3575 2.94558C8.66978 3.37253 7.12057 4.24818 5.87943 5.48932C4.63828 6.73046 3.76263 8.27967 3.33568 9.96735C3.17123 10.6174 2.61492 11.1192 1.94437 11.1192H1.82308C1.15439 11.1192 0.612305 11.6613 0.612305 12.33C0.612305 12.9987 1.15439 13.5408 1.82308 13.5408H1.94431C2.61488 13.5408 3.17118 14.0426 3.33559 14.6927C3.76242 16.3804 4.63803 17.9297 5.8792 19.1709C7.12036 20.412 8.66964 21.2876 10.3574 21.7145C11.0075 21.8789 11.5093 22.4352 11.5093 23.1057V23.227C11.5093 23.8957 12.0514 24.4378 12.7201 24.4378C13.3888 24.4378 13.9309 23.8957 13.9309 23.227V23.1057C13.9309 22.4352 14.4327 21.8789 15.0828 21.7145C16.7705 21.2876 18.3198 20.412 19.561 19.1709C20.8021 17.9297 21.6777 16.3804 22.1046 14.6927C22.269 14.0426 22.8253 13.5408 23.4958 13.5408H23.6171C24.2858 13.5408 24.8279 12.9987 24.8279 12.33C24.8279 11.6613 24.2858 11.1192 23.6171 11.1192H23.4958C22.8252 11.1192 22.2689 10.6174 22.1045 9.96735C21.6775 8.27967 20.8019 6.73046 19.5607 5.48932C18.3196 4.24818 16.7704 3.37253 15.0827 2.94558ZM12.7201 19.5946C8.71362 19.5946 5.45542 16.3364 5.45542 12.33C5.45542 8.32351 8.71362 5.06531 12.7201 5.06531C16.7265 5.06531 19.9847 8.32351 19.9847 12.33C19.9847 16.3364 16.7265 19.5946 12.7201 19.5946Z" fill="white"/>
</svg>
