<svg width="50" height="50" viewBox="0 0 50 50" fill="none" xmlns="http://www.w3.org/2000/svg">
<circle cx="25" cy="25" r="24" stroke="#1B1B1B" stroke-width="2"/>
<path d="M28.35 17.75C28.35 17.5833 28.4333 17.5 28.6 17.5H30.5C30.6667 17.5 30.75 17.5833 30.75 17.75V34.75C30.75 34.9167 30.6667 35 30.5 35H28.675C28.5583 35 28.4583 34.9417 28.375 34.825L20.55 22.05C20.5333 22 20.5083 21.9833 20.475 22C20.4417 22 20.425 22.025 20.425 22.075L20.45 34.75C20.45 34.9167 20.3667 35 20.2 35H18.3C18.1333 35 18.05 34.9167 18.05 34.75V17.75C18.05 17.5833 18.1333 17.5 18.3 17.5H20.15C20.2667 17.5 20.3667 17.5583 20.45 17.675L28.25 30.45C28.2667 30.5 28.2917 30.525 28.325 30.525C28.3583 30.5083 28.375 30.475 28.375 30.425L28.35 17.75Z" fill="#1B1B1B"/>
<line x1="16" y1="25" x2="33.0294" y2="25" stroke="#1B1B1B" stroke-width="2"/>
<line x1="16" y1="29" x2="33.0294" y2="29" stroke="#1B1B1B" stroke-width="2"/>
</svg>
