<svg width="42" height="39" viewBox="0 0 42 39" fill="none" xmlns="http://www.w3.org/2000/svg">
<path d="M36.75 5.25H11.2383L10.9922 4.26562C10.7188 3.00781 10.1035 1.98242 9.14648 1.18945C8.18945 0.396484 7.05469 0 5.74219 0H1.72266C1.23047 0 0.820312 0.164062 0.492188 0.492188C0.164062 0.820312 0 1.25781 0 1.80469C0 2.29688 0.164062 2.70703 0.492188 3.03516C0.820312 3.36328 1.23047 3.52734 1.72266 3.52734H5.74219C6.78125 3.52734 7.38281 3.99219 7.54688 4.92188L11.5664 25.9219C11.8945 27.0703 12.5371 28 13.4941 28.7109C14.4512 29.4219 15.5039 29.7773 16.6523 29.7773H33.2227C33.7695 29.7773 34.207 29.6133 34.5352 29.2852C34.8633 28.957 35.0273 28.5469 35.0273 28.0547C35.0273 26.8516 34.4258 26.25 33.2227 26.25H16.6523C15.8867 26.25 15.3398 25.9219 15.0117 25.2656L14.8477 24.5273H32.4023C33.4961 24.5273 34.4941 24.1992 35.3965 23.543C36.2988 22.8867 36.9141 22.0391 37.2422 21L42 10.9102V10.5C42 9.02344 41.4941 7.7793 40.4824 6.76758C39.4707 5.75586 38.2266 5.25 36.75 5.25ZM15.75 21H14.1914L11.8945 8.77734H15.75V21ZM22.7227 21H19.2773V8.77734H22.7227V21ZM29.7773 21H26.25V8.77734H29.7773V21ZM34.125 19.6055V19.7695C33.9609 20.3164 33.6602 20.6719 33.2227 20.8359V8.77734H36.75C37.7344 8.77734 38.3086 9.24219 38.4727 10.1719L34.125 19.6055ZM21 35.0273C21 36.0117 20.6582 36.8457 19.9746 37.5293C19.291 38.2129 18.457 38.5547 17.4727 38.5547C16.543 38.5547 15.7363 38.2129 15.0527 37.5293C14.3691 36.8457 14.0273 36.0117 14.0273 35.0273C14.0273 34.043 14.3691 33.209 15.0527 32.5254C15.7363 31.8418 16.543 31.5 17.4727 31.5C18.457 31.5 19.291 31.8418 19.9746 32.5254C20.6582 33.209 21 34.043 21 35.0273ZM35.0273 35.0273C35.0273 36.0117 34.6855 36.8457 34.002 37.5293C33.3184 38.2129 32.4844 38.5547 31.5 38.5547C30.5156 38.5547 29.6816 38.2129 28.998 37.5293C28.3145 36.8457 27.9727 36.0117 27.9727 35.0273C27.9727 34.043 28.3145 33.209 28.998 32.5254C29.6816 31.8418 30.5156 31.5 31.5 31.5C32.4844 31.5 33.3184 31.8418 34.002 32.5254C34.6855 33.209 35.0273 34.043 35.0273 35.0273Z" fill="#D9D9D9"/>
</svg>
