<svg width="42" height="39" viewBox="0 0 42 39" fill="none" xmlns="http://www.w3.org/2000/svg">
<path d="M7.63636 19.0909L11.4545 11.4545V9.54545H5.72727V11.4545H9.54545L5.72727 19.0909M15.2727 19.0909L19.0909 11.4545V9.54545H13.3636V11.4545H17.1818L13.3636 19.0909M22.9091 19.0909L26.7273 11.4545V9.54545H21V11.4545H24.8182L21 19.0909M38.1818 0C36.0818 0 34.3636 1.71818 34.3636 3.81818C34.3636 5.15455 35.1273 6.49091 36.2727 7.06364V28.6364H30.5455V24.8182C31.6909 24.8182 32.4545 24.0545 32.4545 22.9091V5.72727C32.4545 4.58182 31.6909 3.81818 30.5455 3.81818H23.2909C21.7636 1.52727 19.0909 0 16.2273 0C13.3636 0 10.6909 1.52727 9.16364 3.81818H1.90909C0.763636 3.81818 0 4.58182 0 5.72727V22.9091C0 24.0545 0.763636 24.8182 1.90909 24.8182V38.1818H30.5455V32.4545H36.2727C38.3727 32.4545 40.0909 30.7364 40.0909 28.6364V7.06364C41.2364 6.49091 42 5.15455 42 3.81818C42 1.71818 40.2818 0 38.1818 0ZM22.9091 32.4545H9.54545V28.6364H22.9091V32.4545ZM28.6364 21H3.81818V7.63636H28.6364V21Z" fill="#D9D9D9"/>
</svg>
