<svg width="15" height="15" viewBox="0 0 15 15" fill="none" xmlns="http://www.w3.org/2000/svg">
<path d="M7.48926 11.7828L4.20335 14.2759C4.04053 14.4082 3.86292 14.4709 3.6705 14.4638C3.47808 14.4568 3.30787 14.4015 3.15985 14.2979C3.01184 14.195 2.89727 14.0552 2.81616 13.8787C2.73505 13.7022 2.7312 13.511 2.80462 13.3051L4.07014 9.22346L0.850835 6.95098C0.673218 6.83331 0.562207 6.67887 0.517803 6.48766C0.473399 6.29644 0.4808 6.11994 0.540005 5.95814C0.599211 5.79635 0.702821 5.65279 0.850835 5.52748C0.998848 5.40216 1.17647 5.33979 1.38368 5.34038H5.35786L6.64558 1.1043C6.71959 0.898379 6.83444 0.740114 6.99015 0.629506C7.14586 0.518897 7.31223 0.463886 7.48926 0.464475C7.66687 0.464475 7.83354 0.519779 7.98925 0.630388C8.14496 0.740997 8.25952 0.898967 8.33294 1.1043L9.62066 5.34038H13.5948C13.802 5.34038 13.9797 5.40304 14.1277 5.52836C14.2757 5.65368 14.3793 5.79694 14.4385 5.95814C14.4977 6.11994 14.5051 6.29644 14.4607 6.48766C14.4163 6.67887 14.3053 6.83331 14.1277 6.95098L10.9084 9.22346L12.1739 13.3051C12.2479 13.511 12.2444 13.7022 12.1632 13.8787C12.0821 14.0552 11.9673 14.195 11.8187 14.2979C11.6707 14.4009 11.5004 14.4562 11.308 14.4638C11.1156 14.4715 10.938 14.4088 10.7752 14.2759L7.48926 11.7828Z" fill="#EBAE39"/>
</svg>
