<svg width="42" height="40" viewBox="0 0 42 40" fill="none" xmlns="http://www.w3.org/2000/svg">
<path d="M37.7153 26.1449C37.7363 25.8299 37.7993 25.5149 37.7993 25.1999V26.2499L37.7153 26.1449ZM16.7997 25.1999C16.7997 26.6909 17.1147 28.1189 17.6817 29.3999H6.29988V31.4999C6.29988 32.6549 5.3549 33.5999 4.19992 33.5999H2.09996C0.944982 33.5999 0 32.6549 0 31.4999V14.7L4.36792 2.09999C4.78791 0.881997 5.96389 0 7.34986 0H30.4494C31.8354 0 33.0114 0.881997 33.4314 2.09999L37.7993 14.7V25.1999C37.7993 19.4039 33.0954 14.7 27.2995 14.7C21.5036 14.7 16.7997 19.4039 16.7997 25.1999ZM10.4998 19.9499C10.4998 18.2069 9.09283 16.7999 7.34986 16.7999C5.60689 16.7999 4.19992 18.2069 4.19992 19.9499C4.19992 21.6929 5.60689 23.0999 7.34986 23.0999C9.09283 23.0999 10.4998 21.6929 10.4998 19.9499ZM33.5994 12.6L30.4494 3.14999H7.34986L4.19992 12.6H33.5994ZM41.7262 36.0989L33.0954 27.4679C33.9564 25.2839 33.4734 22.7219 31.6674 20.9369C29.7774 19.0259 26.9425 18.6479 24.6535 19.6979L28.7275 23.7719L25.8925 26.6279L21.7136 22.5329C20.5796 24.8219 21.1046 27.6569 22.9526 29.5679C23.7866 30.4187 24.8511 31.0072 26.0151 31.2609C27.1792 31.5146 28.392 31.4225 29.5044 30.9959L38.1353 39.6059C38.5133 40.0049 39.0803 40.0049 39.4583 39.6059L41.6422 37.4429C42.1042 37.0649 42.1042 36.3929 41.7262 36.0989Z" fill="#384AAD"/>
</svg>
