<svg width="22" height="22" viewBox="0 0 22 22" fill="none" xmlns="http://www.w3.org/2000/svg">
<path d="M16.1845 14.431C15.9633 14.2094 15.663 14.0848 15.3498 14.0848H15.016C14.9248 14.0848 14.8372 14.0494 14.7716 13.9861C14.6371 13.8564 14.628 13.6447 14.7439 13.4982C15.8479 12.103 16.4511 10.373 16.4498 8.58737C16.4498 7.01684 15.9841 5.48158 15.1116 4.17574C14.239 2.86989 12.9989 1.85211 11.5479 1.25109C10.0969 0.650078 8.50028 0.492825 6.95993 0.799219C5.41958 1.10561 4.00468 1.86189 2.89415 2.97243C1.78362 4.08296 1.02734 5.49786 0.720942 7.03821C0.414547 8.57856 0.5718 10.1752 1.17281 11.6262C1.77383 13.0771 2.79161 14.3173 4.09746 15.1898C5.4033 16.0624 6.93856 16.5281 8.50909 16.5281C10.3571 16.5281 12.0649 15.8918 13.4198 14.8218C13.5664 14.706 13.778 14.7152 13.9078 14.8497C13.9711 14.9155 14.0065 15.0032 14.0065 15.0944V15.4281C14.0065 15.7413 14.1311 16.0416 14.3527 16.2628L19.2037 21.1041C19.707 21.6064 20.5221 21.606 21.0249 21.1032C21.5277 20.6004 21.5281 19.7853 21.0258 19.282L16.1845 14.431ZM8.50909 14.0848C5.46718 14.0848 3.01166 11.6293 3.01166 8.58737C3.01166 5.54546 5.46718 3.08994 8.50909 3.08994C11.551 3.08994 14.0065 5.54546 14.0065 8.58737C14.0065 11.6293 11.551 14.0848 8.50909 14.0848Z" fill="white"/>
</svg>
