<svg width="24" height="22" viewBox="0 0 24 22" fill="none" xmlns="http://www.w3.org/2000/svg">
<path d="M22.7468 9.88889V6.55556C22.7468 5.96619 22.5034 5.40095 22.0701 4.98421C21.6368 4.56746 21.0491 4.33333 20.4364 4.33333H13.5052M13.5052 4.33333L16.9708 7.66667M13.5052 4.33333L16.9708 1M1.95312 12.1111V15.4444C1.95313 16.0338 2.19654 16.599 2.62983 17.0158C3.06311 17.4325 3.65077 17.6667 4.26353 17.6667H11.1947M11.1947 17.6667L7.72914 14.3333M11.1947 17.6667L7.72914 21M1.95312 2.11111C1.95312 1.81643 2.07483 1.53381 2.29148 1.32544C2.50812 1.11706 2.80195 1 3.10833 1H7.72914C8.03552 1 8.32935 1.11706 8.54599 1.32544C8.76263 1.53381 8.88434 1.81643 8.88434 2.11111V6.55556C8.88434 6.85024 8.76263 7.13286 8.54599 7.34123C8.32935 7.5496 8.03552 7.66667 7.72914 7.66667H3.10833C2.80195 7.66667 2.50812 7.5496 2.29148 7.34123C2.07483 7.13286 1.95313 6.85024 1.95312 6.55556V2.11111ZM15.8156 15.4444C15.8156 15.1498 15.9373 14.8671 16.1539 14.6588C16.3706 14.4504 16.6644 14.3333 16.9708 14.3333H21.5916C21.898 14.3333 22.1918 14.4504 22.4084 14.6588C22.6251 14.8671 22.7468 15.1498 22.7468 15.4444V19.8889C22.7468 20.1836 22.6251 20.4662 22.4084 20.6746C22.1918 20.8829 21.898 21 21.5916 21H16.9708C16.6644 21 16.3706 20.8829 16.1539 20.6746C15.9373 20.4662 15.8156 20.1836 15.8156 19.8889V15.4444Z" stroke="#384AAD" stroke-width="2" stroke-linecap="round" stroke-linejoin="round"/>
</svg>
