<svg width="50" height="48" viewBox="0 0 50 48" fill="none" xmlns="http://www.w3.org/2000/svg">
<path d="M2.5 42.6667V2.66667C2.5 1.95942 2.76339 1.28115 3.23223 0.781048C3.70107 0.280951 4.33696 0 5 0H27.5C28.163 0 28.7989 0.280951 29.2678 0.781048C29.7366 1.28115 30 1.95942 30 2.66667V24H35C36.3261 24 37.5979 24.5619 38.5355 25.5621C39.4732 26.5623 40 27.9188 40 29.3333V40C40 40.7072 40.2634 41.3855 40.7322 41.8856C41.2011 42.3857 41.837 42.6667 42.5 42.6667C43.163 42.6667 43.7989 42.3857 44.2678 41.8856C44.7366 41.3855 45 40.7072 45 40V21.3333H40C39.337 21.3333 38.7011 21.0524 38.2322 20.5523C37.7634 20.0522 37.5 19.3739 37.5 18.6667V9.104L33.3575 4.68533L36.8925 0.914667L49.2675 14.1147C49.5 14.362 49.6844 14.6558 49.8101 14.9794C49.9358 15.3029 50.0003 15.6498 50 16V40C50 42.1217 49.2098 44.1566 47.8033 45.6569C46.3968 47.1571 44.4891 48 42.5 48C40.5109 48 38.6032 47.1571 37.1967 45.6569C35.7902 44.1566 35 42.1217 35 40V29.3333H30V42.6667H32.5V48H0V42.6667H2.5ZM7.5 5.33333V21.3333H25V5.33333H7.5Z" fill="#1B1B1B"/>
</svg>
